SplineFontDB: 3.0
FontName: Shahab-Regular
FullName: Shahab Regular
FamilyName: Shahab
Weight: Regular
Copyright: Copyright (c) 2016 Copyright Holder Persian Font Store (info@font-store.ir), with Reserved Font Name "Shahab"
UComments: "2015-5-13: Created with FontForge (http://fontforge.org)"
Version: Version:0.0.2;RFB:1.2.5;Building:2016-11-27 11:18:43.168735
FONDName: RITA
ItalicAngle: 0
UnderlinePosition: 500
UnderlineWidth: 59
Ascent: 800
Descent: 500
InvalidEm: 0
sfntRevision: 0x00010000
LayerCount: 2
Layer: 0 0 "Back" 1
Layer: 1 0 "Fore" 0
PreferredKerning: 4
XUID: [1021 828 -1901974348 32649]
StyleMap: 0x0040
FSType: 0
OS2Version: 0
OS2_WeightWidthSlopeOnly: 0
OS2_UseTypoMetrics: 0
CreationTime: 1431477301
ModificationTime: 1480232923
PfmFamily: 33
TTFWeight: 400
TTFWidth: 5
LineGap: 0
VLineGap: 0
Panose: 2 0 5 3 0 0 0 0 0 0
OS2TypoAscent: 800
OS2TypoAOffset: 0
OS2TypoDescent: -500
OS2TypoDOffset: 0
OS2TypoLinegap: 0
OS2WinAscent: 1100
OS2WinAOffset: 0
OS2WinDescent: 700
OS2WinDOffset: 0
HheadAscent: 1100
HheadAOffset: 0
HheadDescent: -700
HheadDOffset: 0
OS2SubXSize: 780
OS2SubYSize: 839
OS2SubXOff: -107
OS2SubYOff: 168
OS2SupXSize: 780
OS2SupYSize: 839
OS2SupXOff: 369
OS2SupYOff: 575
OS2StrikeYSize: 59
OS2StrikeYPos: 310
OS2Vendor: 'RITA'
OS2CodePages: 00000040.00000000
OS2UnicodeRanges: 80002003.80002000.00000008.00000000
MacStyle: 0
Lookup: 4 1 1 "'ccmp' Glyph Composition/Decomposition in Arabic lookup 5" { "'ccmp' Glyph Composition/Decomposition in Arabic lookup 5-1"  } ['ccmp' ('DFLT' <'dflt' > 'arab' <'dflt' > ) ]
Lookup: 1 9 0 "'isol' Isolated Forms in Latin lookup 1" { "'isol' Isolated Forms in Latin lookup 1-1"  } ['isol' ('DFLT' <'dflt' > 'arab' <'dflt' > ) ]
Lookup: 1 9 0 "'fina' Terminal Forms in Arabic lookup 3" { "'fina' Terminal Forms in Arabic lookup 3-1"  } ['fina' ('DFLT' <'dflt' > 'arab' <'dflt' > ) ]

StartChar: _.alef.isol
Encoding: 65536 -1 0
GlifName: _.alef.isol
Width: 291
VWidth: 1304
GlyphClass: 2
Flags: HMW
LayerCount: 2
Fore
SplineSet
100 -0 m 1
 100 757 l 1
 191 800 l 1
 191 42 l 1
 100 -0 l 1
EndSplineSet
Colour: ffda6b
EndChar

StartChar: _.alef.fina
Encoding: 65537 -1 1
GlifName: _.alef.fina
Width: 314
VWidth: 1304
GlyphClass: 2
Flags: HMW
LayerCount: 2
Fore
SplineSet
100 183 m 1
 100 757 l 1
 191 800 l 1
 191 197 l 1
 192 137 214 100 314 100 c 1
 314 -0 l 1
 172 0 102 45 100 183 c 1
EndSplineSet
Colour: ffda6b
EndChar

StartChar: _.alef_kotah.isol
Encoding: 65538 -1 2
GlifName: _.alef_kotah.isol
Width: 291
VWidth: 1304
GlyphClass: 2
Flags: HMW
LayerCount: 2
Fore
SplineSet
100 -0 m 1
 100 657 l 1
 191 700 l 1
 191 42 l 1
 100 -0 l 1
EndSplineSet
Colour: ffda6b
EndChar

StartChar: _.alef_kotah.fina
Encoding: 65539 -1 3
GlifName: _.alef_kotah.fina
Width: 314
VWidth: 1304
GlyphClass: 2
Flags: HMW
LayerCount: 2
Fore
SplineSet
100 183 m 1
 100 657 l 1
 191 700 l 1
 191 197 l 1
 192 137 214 100 314 100 c 1
 314 -0 l 1
 172 0 102 45 100 183 c 1
EndSplineSet
Colour: ffda6b
EndChar

StartChar: _.beh.isol
Encoding: 65540 -1 4
GlifName: _.beh.isol
Width: 1002
VWidth: 1304
GlyphClass: 2
UnlinkRmOvrlpSave: 1
Flags: HMW
LayerCount: 2
Fore
SplineSet
177 233 m 0
 177 108 321 88 495 88 c 0
 624 88 748 109 820 139 c 1
 820 169 795 295 767 375 c 1
 858 417 l 1
 884 328 902 244 902 187 c 0
 902 180 902 173 901 167 c 0
 901 121 891 68 848 48 c 0
 764 9 630 -15 484 -15 c 0
 265 -15 100 25 100 190 c 0
 100 241 116 306 151 384 c 1
 210 358 l 1
 187 308 177 267 177 233 c 0
EndSplineSet
Colour: ffda6b
EndChar

StartChar: _.beh.fina
Encoding: 65541 -1 5
GlifName: _.beh.fina
Width: 1024
VWidth: 1304
GlyphClass: 2
UnlinkRmOvrlpSave: 1
Flags: HMW
LayerCount: 2
Fore
SplineSet
177 233 m 0
 177 108 322 88 496 88 c 0
 617 88 731 107 804 134 c 1
 780 312 l 1
 870 331 l 1
 890 188 l 2
 899 123 921 100 1024 100 c 1
 1024 -0 l 1
 996 -0 l 2
 922 0 877 16 847 48 c 1
 765 9 630 -15 484 -15 c 0
 265 -15 100 25 100 190 c 0
 100 241 116 306 151 384 c 1
 210 358 l 1
 187 308 177 267 177 233 c 0
EndSplineSet
Colour: ffda6b
EndChar

StartChar: _.beh.medi
Encoding: 65542 -1 6
GlifName: _.beh.medi
Width: 442
VWidth: 1304
GlyphClass: 2
UnlinkRmOvrlpSave: 1
Flags: HMW
LayerCount: 2
Fore
SplineSet
-50 50 m 0
 -50 76 -26 100 -1 100 c 2
 36 100 l 2
 82 100 177 107 227 123 c 1
 223 139 219 155 217 172 c 2
 199 312 l 1
 289 331 l 1
 308 188 l 2
 318 118 341 100 442 100 c 1
 442 -0 l 1
 414 -0 l 2
 340 0 293 16 265 48 c 1
 216 11 137 0 36 -0 c 2
 -1 -0 l 2
 -26 0 -50 24 -50 50 c 0
EndSplineSet
Colour: ffda6b
EndChar

StartChar: _.beh.init
Encoding: 65543 -1 7
GlifName: _.beh.init
Width: 421
VWidth: 1197
GlyphClass: 1
UnlinkRmOvrlpSave: 1
Flags: HMW
LayerCount: 2
Fore
SplineSet
321 176 m 0
 321 32 207 0 36 -0 c 2
 -1 -0 l 2
 -26 0 -50 24 -50 50 c 0
 -50 76 -26 100 -1 100 c 2
 36 100 l 2
 85 100 192 108 239 128 c 1
 240 156 214 284 186 365 c 1
 277 407 l 1
 304 318 321 233 321 176 c 0
EndSplineSet
Colour: ffda6b
EndChar

StartChar: _.heh.isol
Encoding: 65544 -1 8
GlifName: _.heh.isol
Width: 846
VWidth: 1304
GlyphClass: 1
UnlinkRmOvrlpSave: 1
Flags: HMW
LayerCount: 2
Fore
SplineSet
579 228 m 0
 376 228 213 79 213 -52 c 0
 213 -170 312 -239 471 -239 c 0
 521 -239 576 -232 637 -218 c 1
 663 -293 l 1
 608 -317 533 -333 457 -333 c 0
 292 -333 118 -262 118 -59 c 0
 118 85 230 229 394 292 c 1
 316 322 269 335 237 335 c 0
 207 335 191 322 178 300 c 2
 150 252 l 1
 100 280 l 1
 128 346 l 2
 154 408 192 434 247 434 c 0
 295 434 356 415 435 383 c 0
 546 339 625 311 746 311 c 1
 706 220 l 1
 685 220 662 221 639 225 c 1
 624 225 l 1
 609 227 594 228 579 228 c 0
EndSplineSet
Colour: ffda6b
EndChar

StartChar: _.heh.fina
Encoding: 65545 -1 9
GlifName: _.heh.fina
Width: 786
VWidth: 1304
GlyphClass: 1
UnlinkRmOvrlpSave: 1
Flags: HMW
LayerCount: 2
Fore
SplineSet
537 226 m 1
 354 206 213 71 213 -52 c 0
 213 -170 312 -239 471 -239 c 0
 521 -239 576 -232 637 -218 c 1
 663 -293 l 1
 608 -317 533 -333 457 -333 c 0
 292 -333 118 -262 118 -59 c 0
 118 85 230 229 394 292 c 1
 316 322 269 335 237 335 c 0
 207 335 191 322 178 300 c 2
 150 252 l 1
 100 280 l 1
 128 346 l 2
 154 408 192 434 247 434 c 0
 295 434 356 415 435 383 c 0
 546 339 625 311 746 311 c 1
 706 220 l 1
 620 227 l 1
 624 188 l 2
 633 123 665 100 768 100 c 2
 786 100 l 1
 786 -0 l 1
 768 -0 l 2
 629 0 561 39 543 172 c 1
 537 226 l 1
EndSplineSet
Colour: ffda6b
EndChar

StartChar: _.heh.medi
Encoding: 65546 -1 10
GlifName: _.heh.medi
Width: 760
VWidth: 1304
GlyphClass: 1
UnlinkRmOvrlpSave: 1
Flags: HMW
LayerCount: 2
Fore
SplineSet
-50 50 m 0
 -49 76 -26 100 0 100 c 2
 80 100 l 2
 273 100 362 202 467 267 c 1
 436 277 407 286 381 296 c 0
 296 329 245 344 211 344 c 0
 181 344 165 332 152 310 c 2
 125 263 l 1
 74 290 l 1
 103 356 l 2
 129 418 166 444 221 444 c 0
 269 444 330 425 409 393 c 0
 515 350 594 323 707 321 c 1
 721 321 l 1
 680 230 l 1
 634 230 l 2
 620 230 608 229 594 224 c 1
 599 188 l 2
 608 123 640 100 743 100 c 2
 760 100 l 1
 760 -0 l 1
 743 -0 l 2
 604 0 539 22 518 172 c 1
 518 183 l 1
 420 115 302 0 80 -0 c 2
 0 -0 l 2
 -26 0 -50 24 -50 50 c 0
EndSplineSet
Colour: ffda6b
EndChar

StartChar: _.heh.init
Encoding: 65547 -1 11
GlifName: _.heh.init
Width: 821
VWidth: 1304
GlyphClass: 1
UnlinkRmOvrlpSave: 1
Flags: HMW
LayerCount: 2
Fore
SplineSet
-50 50 m 0
 -49 76 -26 100 0 100 c 2
 80 100 l 2
 273 100 362 202 467 267 c 1
 436 277 407 286 381 296 c 0
 296 329 245 344 211 344 c 0
 181 344 165 332 152 310 c 2
 125 263 l 1
 74 290 l 1
 103 356 l 2
 129 418 166 444 221 444 c 0
 269 444 330 425 409 393 c 0
 515 350 594 323 707 321 c 1
 721 321 l 1
 680 230 l 1
 634 230 l 2
 633 230 l 0
 496 230 392 0 80 -0 c 2
 0 -0 l 2
 -26 0 -50 24 -50 50 c 0
EndSplineSet
Colour: ffda6b
EndChar

StartChar: _.sin.isol
Encoding: 65548 -1 12
GlifName: _.sin.isol
Width: 1422
VWidth: 1304
GlyphClass: 1
UnlinkRmOvrlpSave: 1
Flags: HMW
LayerCount: 2
Fore
SplineSet
357 -299 m 0
 216 -299 100 -225 100 -58 c 0
 100 2 115 74 149 159 c 1
 200 143 l 1
 178 81 167 28 167 -16 c 0
 167 -145 253 -201 365 -201 c 0
 458 -201 568 -163 656 -100 c 1
 655 -67 646 48 587 229 c 1
 680 272 l 1
 696 224 709 173 720 123 c 1
 750 103 791 100 829 100 c 0
 872 100 931 115 954 130 c 1
 949 153 948 179 948 207 c 2
 948 262 l 1
 1037 268 l 1
 1037 210 l 2
 1037 204 1036 199 1036 194 c 0
 1036 132 1058 100 1129 100 c 0
 1189 100 1224 117 1239 128 c 1
 1239 130 l 2
 1239 151 1229 211 1197 325 c 1
 1288 368 l 1
 1310 293 1322 226 1322 174 c 0
 1322 165 1322 157 1321 149 c 0
 1317 46 1209 0 1127 -0 c 0
 1125 0 1123 0 1121 -0 c 0
 1062 0 1019 19 990 54 c 1
 947 18 883 0 829 -0 c 0
 827 0 826 0 824 -0 c 0
 791 0 763 2 738 8 c 1
 739 -6 739 -20 739 -33 c 0
 739 -49 738 -64 736 -78 c 0
 720 -203 527 -299 357 -299 c 0
EndSplineSet
Colour: ffda6b
EndChar

StartChar: _.sin.fina
Encoding: 65549 -1 13
GlifName: _.sin.fina
Width: 1448
VWidth: 1304
GlyphClass: 1
UnlinkRmOvrlpSave: 1
Flags: HMW
LayerCount: 2
Fore
SplineSet
357 -299 m 0
 216 -299 100 -225 100 -58 c 0
 100 2 115 74 149 159 c 1
 200 143 l 1
 178 81 167 28 167 -16 c 0
 167 -145 253 -201 365 -201 c 0
 458 -201 568 -163 656 -100 c 1
 655 -67 646 48 587 229 c 1
 680 272 l 1
 696 224 709 173 720 123 c 1
 750 103 791 100 829 100 c 0
 872 100 931 115 954 130 c 1
 949 153 948 179 948 207 c 2
 948 262 l 1
 1037 268 l 1
 1037 210 l 2
 1037 204 1036 199 1036 194 c 0
 1036 132 1058 100 1129 100 c 0
 1188 100 1222 117 1237 127 c 1
 1231 147 1226 168 1224 191 c 1
 1203 329 l 1
 1290 349 l 1
 1310 209 l 2
 1322 125 1336 100 1448 100 c 1
 1448 -0 l 1
 1366 0 1313 16 1277 54 c 1
 1238 17 1177 0 1127 -0 c 0
 1125 0 1123 0 1121 -0 c 0
 1062 0 1019 19 990 54 c 1
 947 18 883 0 829 -0 c 0
 827 0 826 0 824 -0 c 0
 791 0 763 2 738 8 c 1
 739 -6 739 -20 739 -33 c 0
 739 -49 738 -64 736 -78 c 0
 720 -203 527 -299 357 -299 c 0
EndSplineSet
Colour: ffda6b
EndChar

StartChar: _.sin.medi
Encoding: 65550 -1 14
GlifName: _.sin.medi
Width: 1001
VWidth: 1304
GlyphClass: 1
UnlinkRmOvrlpSave: 1
Flags: HMW
LayerCount: 2
Fore
SplineSet
-50 50 m 0
 -49 75 -25 99 -2 100 c 1
 30 100 l 2
 136 100 166 116 188 186 c 2
 216 279 l 1
 302 253 l 1
 264 131 l 1
 295 104 339 100 382 100 c 0
 425 100 485 115 508 130 c 1
 502 153 502 179 502 207 c 2
 502 262 l 1
 590 268 l 1
 590 210 l 2
 590 205 590 201 590 197 c 0
 590 133 608 100 682 100 c 0
 741 100 775 117 791 127 c 1
 785 147 780 168 776 191 c 2
 756 329 l 1
 843 349 l 1
 863 209 l 1
 874 125 889 100 1001 100 c 1
 1001 -0 l 1
 919 0 864 16 830 54 c 1
 791 17 730 0 680 -0 c 0
 678 0 677 0 675 -0 c 0
 616 0 572 19 543 54 c 1
 500 18 435 0 381 -0 c 0
 379 0 378 0 376 -0 c 0
 307 0 263 10 209 49 c 1
 165 10 104 0 24 -0 c 2
 0 -0 l 1
 -23 1 -50 24 -50 50 c 0
EndSplineSet
Colour: ffda6b
EndChar

StartChar: _.sin.init
Encoding: 65551 -1 15
GlifName: _.sin.init
Width: 975
VWidth: 1304
GlyphClass: 1
UnlinkRmOvrlpSave: 1
Flags: HMW
LayerCount: 2
Fore
SplineSet
-50 50 m 0
 -49 75 -25 99 -2 100 c 1
 30 100 l 2
 136 100 166 116 188 186 c 2
 216 279 l 1
 302 253 l 1
 264 131 l 1
 295 104 339 100 382 100 c 0
 425 100 485 115 508 130 c 1
 502 153 502 179 502 207 c 2
 502 262 l 1
 590 268 l 1
 590 210 l 2
 590 205 590 201 590 197 c 0
 590 133 608 100 682 100 c 0
 742 100 776 117 791 128 c 1
 791 130 l 1
 792 151 782 211 749 325 c 1
 841 368 l 1
 864 292 875 224 875 171 c 0
 875 163 875 156 875 149 c 0
 871 46 762 0 680 -0 c 0
 678 0 677 0 675 -0 c 0
 616 0 572 19 543 54 c 1
 500 18 435 0 381 -0 c 0
 379 0 378 0 376 -0 c 0
 307 0 263 10 209 49 c 1
 165 10 104 0 24 -0 c 2
 0 -0 l 1
 -23 1 -50 24 -50 50 c 0
EndSplineSet
Colour: ffda6b
EndChar

StartChar: _.sad.isol
Encoding: 65552 -1 16
GlifName: _.sad.isol
Width: 1433
VWidth: 1304
GlyphClass: 1
UnlinkRmOvrlpSave: 1
Flags: HMW
LayerCount: 2
Fore
SplineSet
357 -299 m 0
 216 -299 100 -225 100 -58 c 0
 100 2 115 74 149 159 c 1
 200 143 l 1
 178 81 167 28 167 -16 c 0
 167 -145 253 -201 365 -201 c 0
 458 -201 568 -163 656 -100 c 1
 655 -67 646 48 587 229 c 1
 680 272 l 1
 689 246 696 219 703 192 c 1
 710 158 724 135 744 120 c 1
 868 275 988 441 1134 441 c 0
 1253 441 1333 364 1333 241 c 0
 1333 215 1329 188 1322 159 c 1
 1296 15 1079 0 961 -0 c 2
 840 -0 l 2
 801 0 764 3 736 12 c 1
 738 -5 739 -21 739 -36 c 0
 739 -51 738 -65 736 -78 c 0
 720 -203 527 -299 357 -299 c 0
1239 203 m 0
 1239 278 1203 340 1130 340 c 0
 1038 340 903 180 841 100 c 1
 962 100 l 2
 1053 100 1149 105 1233 146 c 1
 1237 165 1239 185 1239 203 c 0
EndSplineSet
Colour: ffda6b
EndChar

StartChar: _.sad.fina
Encoding: 65553 -1 17
GlifName: _.sad.fina
Width: 1470
VWidth: 1304
GlyphClass: 1
UnlinkRmOvrlpSave: 1
Flags: HMW
LayerCount: 2
Fore
SplineSet
357 -299 m 0
 216 -299 100 -225 100 -58 c 0
 100 2 115 74 149 159 c 1
 200 143 l 1
 178 81 167 28 167 -16 c 0
 167 -145 253 -201 365 -201 c 0
 458 -201 568 -163 656 -100 c 1
 655 -67 646 48 587 229 c 1
 680 272 l 1
 689 246 696 219 703 192 c 1
 710 158 724 135 744 120 c 1
 868 275 988 441 1134 441 c 0
 1253 441 1333 364 1333 241 c 0
 1333 201 1325 148 1308 117 c 1
 1349 103 1392 100 1430 100 c 2
 1470 100 l 1
 1470 -0 l 1
 1430 -0 l 2
 1343 0 1287 18 1253 60 c 1
 1172 7 1043 0 961 -0 c 2
 840 -0 l 2
 801 0 764 3 736 12 c 1
 738 -5 739 -21 739 -36 c 0
 739 -51 738 -65 736 -78 c 0
 720 -203 527 -299 357 -299 c 0
1239 203 m 0
 1239 278 1203 340 1130 340 c 0
 1038 340 903 180 841 100 c 1
 962 100 l 2
 1053 100 1149 105 1233 146 c 1
 1237 165 1239 185 1239 203 c 0
EndSplineSet
Colour: ffda6b
EndChar

StartChar: _.sad.medi
Encoding: 65554 -1 18
GlifName: _.sad.medi
Width: 1014
VWidth: 1304
GlyphClass: 1
UnlinkRmOvrlpSave: 1
Flags: HMW
LayerCount: 2
Fore
SplineSet
885 240 m 0
 885 199 876 145 859 114 c 1
 897 102 938 100 972 100 c 2
 1014 100 l 1
 1014 -0 l 1
 972 -0 l 2
 888 0 833 17 799 56 c 1
 718 7 593 0 513 -0 c 2
 377 -0 l 2
 303 0 258 16 228 48 c 1
 179 11 101 0 0 -0 c 1
 -25 1 -50 24 -50 50 c 0
 -49 75 -26 100 -1 100 c 0
 45 100 138 107 188 123 c 1
 162 312 l 1
 253 331 l 1
 271 188 l 2
 275 161 282 137 298 124 c 1
 421 276 542 441 686 441 c 0
 804 441 885 363 885 240 c 0
791 203 m 0
 791 278 755 340 682 340 c 0
 590 340 455 180 393 100 c 1
 514 100 l 2
 605 100 700 105 785 146 c 1
 789 165 791 185 791 203 c 0
EndSplineSet
Colour: ffda6b
EndChar

StartChar: _.sad.init
Encoding: 65555 -1 19
GlifName: _.sad.init
Width: 985
VWidth: 1304
GlyphClass: 1
UnlinkRmOvrlpSave: 1
Flags: HMW
LayerCount: 2
Fore
SplineSet
686 441 m 0
 804 441 885 363 885 240 c 0
 885 215 882 188 875 159 c 1
 849 15 631 0 513 -0 c 2
 377 -0 l 2
 303 0 258 16 228 48 c 1
 179 11 101 0 0 -0 c 1
 -25 1 -50 24 -50 50 c 0
 -49 75 -26 100 -1 100 c 0
 45 100 138 107 188 123 c 1
 162 312 l 1
 253 331 l 1
 271 188 l 2
 275 161 282 137 298 124 c 1
 421 276 542 441 686 441 c 0
791 203 m 0
 791 278 755 340 682 340 c 0
 590 340 455 180 393 100 c 1
 514 100 l 2
 605 100 700 105 785 146 c 1
 789 165 791 185 791 203 c 0
EndSplineSet
Colour: ffda6b
EndChar

StartChar: _.ta.isol
Encoding: 65556 -1 20
GlifName: _.ta.isol
Width: 1072
VWidth: 1304
GlyphClass: 1
UnlinkRmOvrlpSave: 1
Flags: HMW
LayerCount: 2
Fore
SplineSet
774 441 m 0
 892 441 972 362 972 240 c 0
 972 215 969 188 962 159 c 1
 936 15 718 0 600 -0 c 2
 302 -0 l 2
 190 0 131 30 100 103 c 1
 136 140 l 1
 184 107 227 100 302 100 c 2
 379 100 l 1
 379 757 l 1
 471 800 l 1
 471 229 l 1
 566 343 662 441 774 441 c 0
878 203 m 0
 878 278 842 340 769 340 c 0
 677 340 542 180 480 100 c 1
 520 100 561 100 601 100 c 0
 692 100 787 105 872 146 c 1
 876 165 878 185 878 203 c 0
EndSplineSet
Colour: ffda6b
EndChar

StartChar: _.ta.fina
Encoding: 65557 -1 21
GlifName: _.ta.fina
Width: 1101
VWidth: 1304
GlyphClass: 1
UnlinkRmOvrlpSave: 1
Flags: HMW
LayerCount: 2
Fore
SplineSet
972 240 m 0
 972 199 963 145 946 114 c 1
 984 102 1025 100 1059 100 c 2
 1101 100 l 1
 1101 -0 l 1
 1059 -0 l 2
 975 0 921 17 887 56 c 1
 806 7 680 0 600 -0 c 2
 302 -0 l 2
 190 0 131 30 100 103 c 1
 136 140 l 1
 184 107 227 100 302 100 c 2
 379 100 l 1
 379 757 l 1
 471 800 l 1
 471 229 l 1
 566 343 662 441 774 441 c 0
 892 441 972 362 972 240 c 0
878 203 m 0
 878 278 842 340 769 340 c 0
 677 340 542 180 480 100 c 1
 520 100 561 100 601 100 c 0
 692 100 787 105 872 146 c 1
 876 165 878 185 878 203 c 0
EndSplineSet
Colour: ffda6b
EndChar

StartChar: _.ta.medi
Encoding: 65558 -1 22
GlifName: _.ta.medi
Width: 861
VWidth: 1304
GlyphClass: 1
UnlinkRmOvrlpSave: 1
Flags: HMW
LayerCount: 2
Fore
SplineSet
732 240 m 0
 732 199 723 145 706 114 c 1
 744 102 785 100 819 100 c 2
 861 100 l 1
 861 -0 l 1
 819 -0 l 2
 735 0 681 17 647 56 c 1
 566 7 440 0 360 -0 c 2
 0 -0 l 2
 -25 0 -50 24 -50 50 c 0
 -49 76 -25 100 0 100 c 2
 140 100 l 1
 140 757 l 1
 231 800 l 1
 231 229 l 1
 326 343 422 441 534 441 c 0
 652 441 732 362 732 240 c 0
638 203 m 0
 638 278 603 340 530 340 c 0
 438 340 303 180 241 100 c 1
 361 100 l 2
 452 100 547 105 632 146 c 1
 636 165 638 185 638 203 c 0
EndSplineSet
Colour: ffda6b
EndChar

StartChar: _.ta.init
Encoding: 65559 -1 23
GlifName: _.ta.init
Width: 832
VWidth: 1304
GlyphClass: 1
UnlinkRmOvrlpSave: 1
Flags: HMW
LayerCount: 2
Fore
SplineSet
534 441 m 0
 652 441 732 362 732 240 c 0
 732 215 729 188 722 159 c 1
 696 15 478 0 360 -0 c 2
 0 -0 l 2
 -25 0 -50 24 -50 50 c 0
 -49 76 -25 100 0 100 c 2
 140 100 l 1
 140 757 l 1
 231 800 l 1
 231 229 l 1
 326 343 422 441 534 441 c 0
638 203 m 0
 638 278 603 340 530 340 c 0
 438 340 303 180 241 100 c 1
 361 100 l 2
 452 100 547 105 632 146 c 1
 636 165 638 185 638 203 c 0
EndSplineSet
Colour: ffda6b
EndChar

StartChar: _.ein.isol
Encoding: 65560 -1 24
GlifName: _.ein.isol
Width: 744
VWidth: 1304
GlyphClass: 1
UnlinkRmOvrlpSave: 1
Flags: HMW
LayerCount: 2
Fore
SplineSet
128 394 m 0
 128 527 228 594 337 594 c 0
 392 594 451 578 504 546 c 1
 453 460 l 1
 413 475 374 482 339 482 c 0
 289 482 245 468 212 444 c 1
 222 368 271 293 333 271 c 1
 397 294 489 318 527 330 c 1
 554 237 l 1
 486 220 409 197 351 170 c 1
 255 114 195 32 195 -52 c 0
 195 -170 293 -239 452 -239 c 0
 502 -239 557 -232 618 -218 c 1
 644 -293 l 1
 589 -317 514 -333 438 -333 c 0
 273 -333 100 -262 100 -59 c 0
 100 40 151 137 237 209 c 1
 164 250 128 322 128 394 c 0
EndSplineSet
Colour: ffda6b
EndChar

StartChar: _.ein.fina
Encoding: 65561 -1 25
GlifName: _.ein.fina
Width: 716
VWidth: 1304
GlyphClass: 1
UnlinkRmOvrlpSave: 1
Flags: HMW
LayerCount: 2
Fore
SplineSet
357 173 m 1
 257 117 195 33 195 -52 c 0
 195 -170 293 -239 452 -239 c 0
 502 -239 557 -232 618 -218 c 1
 644 -293 l 1
 589 -317 514 -333 438 -333 c 0
 273 -333 100 -262 100 -59 c 0
 100 59 174 176 292 250 c 1
 291 251 291 252 290 253 c 0
 249 303 174 379 105 385 c 1
 116 485 l 1
 164 520 269 544 370 544 c 0
 432 544 492 535 537 514 c 0
 573 497 586 473 586 443 c 0
 586 424 581 405 573 383 c 0
 555 333 508 275 442 225 c 1
 536 131 590 100 716 100 c 1
 716 -0 l 1
 567 0 470 49 357 173 c 1
244 425 m 1
 285 391 324 349 357 315 c 1
 376 294 l 1
 449 340 493 388 503 418 c 1
 503 420 l 1
 460 431 414 435 369 435 c 0
 326 435 283 432 244 425 c 1
EndSplineSet
Colour: ffda6b
EndChar

StartChar: _.ein.medi
Encoding: 65562 -1 26
GlifName: _.ein.medi
Width: 596
VWidth: 1304
GlyphClass: 1
UnlinkRmOvrlpSave: 1
Flags: HMW
LayerCount: 2
Fore
SplineSet
207 133 m 1
 143 197 101 269 46 269 c 1
 57 370 l 1
 105 405 211 428 312 428 c 0
 373 428 433 420 478 400 c 0
 514 384 527 360 527 330 c 0
 527 311 522 290 514 268 c 0
 496 220 455 169 393 123 c 1
 443 107 507 100 596 100 c 1
 596 -0 l 1
 448 0 360 27 296 64 c 1
 215 26 114 0 0 -0 c 1
 -25 1 -50 24 -50 50 c 0
 -50 75 -26 100 -1 100 c 0
 78 100 147 113 207 133 c 1
172 306 m 1
 209 264 254 205 298 171 c 1
 383 217 434 271 444 304 c 1
 444 305 l 1
 402 316 357 321 313 321 c 0
 264 321 216 314 172 306 c 1
EndSplineSet
Colour: ffda6b
EndChar

StartChar: _.ein.init
Encoding: 65563 -1 27
GlifName: _.ein.init
Width: 640
VWidth: 1304
GlyphClass: 1
UnlinkRmOvrlpSave: 1
Flags: HMW
LayerCount: 2
Fore
SplineSet
81 253 m 0
 81 386 179 454 289 454 c 0
 344 454 403 438 456 406 c 1
 405 320 l 1
 365 335 327 342 291 342 c 0
 241 342 197 328 165 304 c 1
 176 220 236 135 307 125 c 1
 383 143 451 170 505 196 c 1
 540 106 l 1
 440 40 237 0 95 -0 c 2
 -1 -0 l 1
 -26 1 -50 24 -50 50 c 0
 -50 75 -26 100 -1 100 c 2
 146 100 l 1
 102 142 81 197 81 253 c 0
EndSplineSet
Colour: ffda6b
EndChar

StartChar: _.feh.isol
Encoding: 65564 -1 28
GlifName: _.feh.isol
Width: 1003
VWidth: 1304
GlyphClass: 1
UnlinkRmOvrlpSave: 1
Flags: HMW
LayerCount: 2
Fore
SplineSet
525 343 m 0
 525 441 585 592 700 597 c 1
 854 597 903 367 903 225 c 0
 903 209 902 195 901 182 c 0
 901 179 901 176 901 172 c 0
 901 126 893 69 848 48 c 0
 764 9 630 -15 484 -15 c 0
 265 -15 100 25 100 190 c 0
 100 241 116 306 151 384 c 1
 210 358 l 1
 187 308 177 267 177 233 c 0
 177 108 321 88 495 88 c 0
 618 88 737 108 809 134 c 1
 811 154 812 173 812 193 c 0
 812 200 811 208 811 215 c 1
 778 203 746 197 707 197 c 0
 587 197 525 246 525 343 c 0
617 340 m 0
 617 314 657 296 707 296 c 0
 738 296 771 299 801 308 c 1
 783 415 740 495 702 497 c 1
 661 490 617 398 617 340 c 0
EndSplineSet
Colour: ffda6b
EndChar

StartChar: _.feh.fina
Encoding: 65565 -1 29
GlifName: _.feh.fina
Width: 1104
VWidth: 1304
GlyphClass: 1
UnlinkRmOvrlpSave: 1
Flags: HMW
LayerCount: 2
Fore
SplineSet
177 233 m 0
 177 107 324 88 499 88 c 0
 581 88 661 98 726 112 c 1
 692 146 672 188 671 237 c 0
 676 365 767 480 843 480 c 0
 915 479 1005 379 1005 255 c 0
 1005 248 1006 241 1005 234 c 0
 1005 230 1003 225 1003 220 c 0
 996 181 976 144 944 113 c 1
 998 103 1055 100 1104 100 c 1
 1104 -0 l 1
 999 0 908 15 837 43 c 1
 753 7 624 -15 484 -15 c 0
 265 -15 100 25 100 190 c 0
 100 241 116 306 151 384 c 1
 210 358 l 1
 187 308 177 267 177 233 c 0
740 250 m 1
 757 204 790 173 832 150 c 1
 880 175 917 208 939 246 c 1
 927 306 861 379 843 379 c 0
 823 379 763 329 740 250 c 1
EndSplineSet
Colour: ffda6b
EndChar

StartChar: _.feh.medi
Encoding: 65566 -1 30
GlifName: _.feh.medi
Width: 508
VWidth: 1304
GlyphClass: 1
UnlinkRmOvrlpSave: 1
Flags: HMW
LayerCount: 2
Fore
SplineSet
-50 50 m 0
 -49 76 -25 100 0 100 c 0
 46 100 90 104 129 113 c 1
 95 147 75 189 74 237 c 0
 79 365 171 480 247 480 c 0
 318 479 409 380 409 255 c 0
 409 248 409 241 408 234 c 0
 408 230 407 225 407 220 c 0
 401 181 379 144 348 113 c 1
 401 103 458 100 508 100 c 1
 508 -0 l 1
 403 0 310 15 239 43 c 1
 174 16 92 0 0 -0 c 0
 -25 0 -50 24 -50 50 c 0
143 250 m 1
 160 204 192 173 234 150 c 1
 282 176 320 208 343 246 c 1
 329 306 265 379 247 379 c 0
 227 379 166 329 143 250 c 1
EndSplineSet
Colour: ffda6b
EndChar

StartChar: _.feh.init
Encoding: 65567 -1 31
GlifName: _.feh.init
Width: 518
VWidth: 1304
GlyphClass: 1
UnlinkRmOvrlpSave: 1
Flags: HMW
LayerCount: 2
Fore
SplineSet
-50 50 m 0
 -49 75 -26 100 -1 100 c 0
 187 100 263 121 325 149 c 1
 326 166 327 182 327 198 c 0
 327 205 327 212 327 218 c 1
 294 207 261 199 222 199 c 0
 102 199 41 249 41 345 c 0
 41 441 101 599 217 599 c 0
 370 599 418 371 418 230 c 0
 418 214 418 200 417 187 c 0
 417 140 408 84 364 63 c 0
 280 25 217 0 0 -0 c 0
 -25 0 -50 24 -50 50 c 0
132 342 m 0
 132 316 172 300 222 300 c 0
 253 300 287 302 317 311 c 1
 299 417 255 498 217 500 c 1
 176 494 132 400 132 342 c 0
EndSplineSet
Colour: ffda6b
EndChar

StartChar: _.qaf.isol
Encoding: 65568 -1 32
GlifName: _.qaf.isol
Width: 838
VWidth: 1304
GlyphClass: 1
UnlinkRmOvrlpSave: 1
Flags: HMW
LayerCount: 2
Fore
SplineSet
360 146 m 0
 360 244 420 396 535 400 c 0
 690 400 738 166 738 24 c 0
 737 -9 736 -44 736 -78 c 1
 715 -221 488 -299 338 -299 c 0
 337 -299 337 -299 336 -299 c 0
 200 -299 100 -224 100 -65 c 0
 100 -3 115 71 149 159 c 1
 199 143 l 1
 178 80 168 25 168 -20 c 0
 168 -141 237 -200 338 -200 c 0
 432 -200 569 -161 639 -113 c 1
 645 -93 646 -51 646 -21 c 0
 646 -13 646 -5 646 1 c 2
 646 18 l 1
 613 7 580 0 541 -0 c 0
 421 0 360 49 360 146 c 0
451 143 m 0
 451 117 491 100 541 100 c 0
 572 100 606 104 636 111 c 1
 618 218 574 298 536 300 c 1
 495 293 451 201 451 143 c 0
EndSplineSet
Colour: ffda6b
EndChar

StartChar: _.qaf.fina
Encoding: 65569 -1 33
GlifName: _.qaf.fina
Width: 837
VWidth: 1304
GlyphClass: 1
UnlinkRmOvrlpSave: 1
Flags: HMW
LayerCount: 2
Fore
SplineSet
357 -299 m 0
 217 -299 100 -225 100 -58 c 0
 100 2 115 74 150 159 c 1
 200 143 l 1
 177 81 167 27 167 -17 c 0
 167 -146 254 -201 366 -201 c 0
 452 -201 555 -168 641 -111 c 1
 646 -91 648 -51 648 -22 c 0
 648 -14 647 -6 647 -0 c 1
 542 -0 l 2
 422 0 361 49 361 146 c 0
 361 244 421 396 536 400 c 0
 666 400 721 237 736 100 c 1
 837 100 l 1
 837 -0 l 1
 738 -0 l 1
 738 -26 737 -52 737 -78 c 0
 720 -204 526 -299 357 -299 c 0
453 143 m 0
 453 117 492 100 542 100 c 2
 640 100 l 1
 622 212 579 298 538 300 c 1
 497 293 453 201 453 143 c 0
EndSplineSet
Colour: ffda6b
EndChar

StartChar: _.kaf.isol.fa
Encoding: 65570 -1 34
GlifName: _.kaf.isol.fa
Width: 1097
VWidth: 1304
GlyphClass: 1
UnlinkRmOvrlpSave: 1
Flags: HMW
LayerCount: 2
Fore
SplineSet
177 233 m 0
 177 108 321 88 494 88 c 0
 627 88 714 112 779 143 c 1
 779 214 726 311 535 482 c 0
 529 488 521 495 514 501 c 1
 586 620 l 1
 997 746 l 1
 970 638 l 1
 628 533 l 1
 829 346 856 273 856 205 c 2
 856 197 l 2
 856 186 854 176 853 165 c 0
 849 116 839 68 798 48 c 0
 714 10 631 -15 483 -15 c 0
 265 -15 100 25 100 190 c 0
 100 241 116 306 151 384 c 1
 210 358 l 1
 187 308 177 267 177 233 c 0
EndSplineSet
Colour: ffda6b
EndChar

StartChar: _.kaf.isol.ar
Encoding: 65571 -1 35
GlifName: _.kaf.isol.ar
Width: 932
VWidth: 1304
GlyphClass: 1
UnlinkRmOvrlpSave: 1
Flags: HMW
LayerCount: 2
Fore
SplineSet
100 98 m 1
 166 176 l 1
 204 105 322 88 461 88 c 0
 465 88 468 88 472 88 c 0
 595 88 678 107 741 136 c 1
 741 657 l 1
 832 700 l 1
 832 194 l 1
 828 136 824 71 775 48 c 0
 691 10 607 -15 459 -15 c 0
 289 -15 152 9 100 98 c 1
EndSplineSet
Colour: ffda6b
EndChar

StartChar: _.kaf.fina.fa
Encoding: 65572 -1 36
GlifName: _.kaf.fina.fa
Width: 1072
VWidth: 1304
GlyphClass: 1
UnlinkRmOvrlpSave: 1
Flags: HMW
LayerCount: 2
Fore
SplineSet
177 233 m 0
 177 108 321 88 494 88 c 0
 627 88 714 112 779 143 c 1
 779 182 763 229 716 292 c 2
 707 305 l 1
 669 354 614 412 535 482 c 0
 529 488 521 495 514 501 c 1
 586 620 l 1
 997 746 l 1
 970 638 l 1
 628 533 l 1
 722 446 777 383 810 335 c 1
 938 166 l 2
 972 120 995 100 1044 100 c 2
 1072 100 l 1
 1072 -0 l 1
 1041 -0 l 2
 956 0 915 32 863 100 c 2
 847 120 l 1
 840 88 826 62 798 48 c 0
 714 10 631 -15 483 -15 c 0
 265 -15 100 25 100 190 c 0
 100 241 116 306 151 384 c 1
 210 358 l 1
 187 308 177 267 177 233 c 0
EndSplineSet
Colour: ffda6b
EndChar

StartChar: _.kaf.fina.ar
Encoding: 65573 -1 37
GlifName: _.kaf.fina.ar
Width: 972
VWidth: 1304
GlyphClass: 1
UnlinkRmOvrlpSave: 1
Flags: HMW
LayerCount: 2
Fore
SplineSet
782 52 m 1
 698 10 610 -15 459 -15 c 0
 289 -15 152 9 100 98 c 1
 166 176 l 1
 204 105 322 88 461 88 c 0
 465 88 468 88 472 88 c 0
 595 88 678 107 741 136 c 1
 741 657 l 1
 832 700 l 1
 832 326 l 1
 836 188 l 2
 838 124 860 99 964 99 c 0
 967 99 969 100 972 100 c 1
 972 -0 l 1
 942 -0 l 2
 860 0 810 19 782 52 c 1
EndSplineSet
Colour: ffda6b
EndChar

StartChar: _.kaf.medi
Encoding: 65574 -1 38
GlifName: _.kaf.medi
Width: 568
VWidth: 1304
GlyphClass: 1
UnlinkRmOvrlpSave: 1
Flags: HMW
LayerCount: 2
Fore
SplineSet
-50 49 m 0
 -50 76 -27 100 -1 100 c 0
 131 100 211 110 275 148 c 1
 274 186 257 232 213 292 c 1
 202 305 l 1
 165 354 110 412 31 482 c 1
 9 501 l 1
 82 620 l 1
 493 746 l 1
 466 638 l 1
 124 533 l 1
 218 446 274 383 306 335 c 1
 434 166 l 2
 468 120 491 100 540 100 c 2
 568 100 l 1
 568 -0 l 1
 537 -0 l 2
 452 0 411 32 359 100 c 1
 342 123 l 1
 334 90 320 68 294 53 c 0
 213 7 155 0 -1 -0 c 0
 -25 0 -50 24 -50 49 c 0
EndSplineSet
Colour: ffda6b
EndChar

StartChar: _.kaf.init
Encoding: 65575 -1 39
GlifName: _.kaf.init
Width: 593
VWidth: 1304
GlyphClass: 1
UnlinkRmOvrlpSave: 1
Flags: HMW
LayerCount: 2
Fore
SplineSet
-50 49 m 0
 -50 76 -27 100 -1 100 c 0
 131 100 211 110 275 148 c 1
 273 218 218 315 31 482 c 0
 25 488 16 495 9 501 c 1
 82 620 l 1
 493 746 l 1
 466 638 l 1
 124 533 l 1
 325 346 351 273 351 205 c 0
 351 138 337 78 294 53 c 0
 213 7 155 0 -1 -0 c 0
 -25 0 -50 24 -50 49 c 0
EndSplineSet
Colour: ffda6b
EndChar

StartChar: _.kaf_hamze.isol.ar
Encoding: 65576 -1 40
GlifName: _.kaf_hamze.isol.ar
Width: 399
VWidth: 1304
GlyphClass: 1
UnlinkRmOvrlpSave: 1
Flags: HMW
LayerCount: 2
Fore
SplineSet
146 314 m 0
 119 314 100 337 100 364 c 0
 100 403 134 456 216 495 c 1
 229 452 l 1
 177 431 135 389 135 366 c 0
 135 359 140 354 148 354 c 0
 175 354 227 395 265 395 c 0
 287 395 299 384 299 357 c 0
 299 327 282 279 220 212 c 1
 195 246 l 1
 236 278 259 321 261 357 c 1
 230 353 184 314 146 314 c 0
EndSplineSet
Colour: ffda6b
EndChar

StartChar: _.ghaf.isol
Encoding: 65577 -1 41
GlifName: _.ghaf.isol
Width: 1097
VWidth: 0
GlyphClass: 1
UnlinkRmOvrlpSave: 1
Flags: HMW
LayerCount: 2
Fore
SplineSet
177 233 m 0
 177 108 321 88 494 88 c 0
 627 88 714 112 779 143 c 1
 779 214 726 311 535 482 c 0
 529 488 521 495 514 501 c 1
 586 620 l 1
 997 746 l 1
 970 638 l 1
 628 533 l 1
 829 346 856 273 856 205 c 2
 856 197 l 2
 856 186 854 176 853 165 c 0
 849 116 839 68 798 48 c 0
 714 10 631 -15 483 -15 c 0
 265 -15 100 25 100 190 c 0
 100 241 116 306 151 384 c 1
 210 358 l 1
 187 308 177 267 177 233 c 0
597 734 m 1
 616 800 l 1
 911 897 l 1
 890 832 l 1
 597 734 l 1
EndSplineSet
Colour: ffda6b
EndChar

StartChar: _.ghaf.fina
Encoding: 65578 -1 42
GlifName: _.ghaf.fina
Width: 1072
VWidth: 0
GlyphClass: 1
Flags: HMW
LayerCount: 2
Fore
SplineSet
177 233 m 0
 177 108 321 88 494 88 c 0
 627 88 714 112 779 143 c 1
 779 182 763 229 716 292 c 2
 707 305 l 1
 669 354 614 412 535 482 c 0
 529 488 521 495 514 501 c 1
 586 620 l 1
 997 746 l 1
 970 638 l 1
 628 533 l 1
 722 446 777 383 810 335 c 1
 938 166 l 2
 972 120 995 100 1044 100 c 2
 1072 100 l 1
 1072 -0 l 1
 1041 -0 l 2
 956 0 915 32 863 100 c 2
 847 120 l 1
 840 88 826 62 798 48 c 0
 714 10 631 -15 483 -15 c 0
 265 -15 100 25 100 190 c 0
 100 241 116 306 151 384 c 1
 210 358 l 1
 187 308 177 267 177 233 c 0
577 734 m 1
 596 800 l 1
 890 897 l 1
 870 832 l 1
 577 734 l 1
EndSplineSet
Colour: ffda6b
EndChar

StartChar: _.lam.isol
Encoding: 65580 -1 44
GlifName: _.lam.isol
Width: 810
VWidth: 1304
GlyphClass: 1
UnlinkRmOvrlpSave: 1
Flags: HMW
LayerCount: 2
Fore
SplineSet
357 -299 m 0
 216 -299 100 -225 100 -58 c 0
 100 2 115 74 149 159 c 1
 200 143 l 1
 178 81 167 28 167 -16 c 0
 167 -146 254 -201 366 -201 c 0
 458 -201 562 -167 616 -100 c 1
 616 757 l 1
 709 800 l 1
 709 252 l 2
 709 220 710 191 710 165 c 0
 710 56 706 -11 697 -78 c 0
 680 -204 526 -299 357 -299 c 0
EndSplineSet
Colour: ffda6b
EndChar

StartChar: _.lam.fina
Encoding: 65581 -1 45
GlifName: _.lam.fina
Width: 840
VWidth: 1304
GlyphClass: 1
UnlinkRmOvrlpSave: 1
Flags: HMW
LayerCount: 2
Fore
SplineSet
357 -299 m 0
 216 -299 100 -225 100 -58 c 0
 100 2 115 74 149 159 c 1
 200 143 l 1
 178 81 167 28 167 -16 c 0
 167 -146 254 -201 366 -201 c 0
 458 -201 560 -167 614 -100 c 1
 618 757 l 1
 709 800 l 1
 709 167 l 1
 726 117 767 100 840 100 c 1
 840 -0 l 1
 783 0 739 9 707 26 c 1
 705 -12 701 -45 697 -78 c 0
 680 -204 526 -299 357 -299 c 0
EndSplineSet
Colour: ffda6b
EndChar

StartChar: _.lam.medi
Encoding: 65582 -1 46
GlifName: _.lam.medi
Width: 385
VWidth: 1304
GlyphClass: 1
UnlinkRmOvrlpSave: 1
Flags: HMW
LayerCount: 2
Fore
SplineSet
-50 50 m 0
 -49 76 -25 100 0 100 c 0
 69 100 125 106 173 123 c 1
 173 757 l 1
 264 800 l 1
 264 150 l 1
 285 113 322 100 385 100 c 1
 385 -0 l 1
 305 0 252 16 216 52 c 1
 166 10 81 0 0 -0 c 0
 -25 0 -50 24 -50 50 c 0
EndSplineSet
Colour: ffda6b
EndChar

StartChar: _.lam.init
Encoding: 65583 -1 47
GlifName: _.lam.init
Width: 364
VWidth: 1304
GlyphClass: 1
UnlinkRmOvrlpSave: 1
Flags: HMW
LayerCount: 2
Fore
SplineSet
-50 50 m 0
 -49 76 -25 100 0 100 c 0
 69 100 126 106 174 123 c 1
 152 756 l 1
 242 801 l 1
 264 149 l 1
 258 25 126 0 0 -0 c 0
 -25 0 -50 24 -50 50 c 0
EndSplineSet
Colour: ffda6b
EndChar

StartChar: _.mim.isol
Encoding: 65584 -1 48
GlifName: _.mim.isol
Width: 704
VWidth: 1304
GlyphClass: 1
UnlinkRmOvrlpSave: 1
Flags: HMW
LayerCount: 2
Fore
SplineSet
604 178 m 0
 604 99 578 67 511 54 c 1
 285 54 l 2
 252 54 218 51 191 37 c 1
 191 -298 l 1
 100 -341 l 1
 100 15 l 2
 100 18 100 19 100 22 c 0
 100 88 145 128 210 145 c 1
 238 340 l 2
 249 424 304 444 353 444 c 0
 476 444 604 299 604 178 c 0
305 155 m 1
 514 155 l 1
 514 157 514 160 514 162 c 0
 514 217 426 345 349 345 c 0
 334 345 330 323 324 298 c 1
 305 155 l 1
EndSplineSet
Colour: ffda6b
EndChar

StartChar: _.mim.fina
Encoding: 65585 -1 49
GlifName: _.mim.fina
Width: 764
VWidth: 1304
GlyphClass: 1
UnlinkRmOvrlpSave: 1
Flags: HMW
LayerCount: 2
Fore
SplineSet
100 127 m 1
 99 218 221 259 494 341 c 1
 488 369 l 1
 576 410 l 1
 626 180 l 2
 641 110 685 100 764 100 c 1
 764 -0 l 1
 711 0 669 4 636 18 c 1
 546 -74 l 2
 512 -108 480 -120 452 -120 c 0
 431 -120 413 -114 397 -104 c 0
 334 -66 306 10 306 88 c 0
 306 122 312 157 322 188 c 1
 274 171 228 153 191 132 c 1
 191 -298 l 1
 100 -341 l 1
 100 127 l 1
404 94 m 0
 404 48 417 1 450 -19 c 0
 452 -20 454 -21 457 -21 c 0
 469 -21 484 -9 499 5 c 2
 567 72 l 1
 552 94 542 121 535 155 c 2
 515 245 l 1
 492 239 468 231 443 225 c 1
 436 214 l 1
 418 194 404 144 404 94 c 0
EndSplineSet
Colour: ffda6b
EndChar

StartChar: _.mim.medi
Encoding: 65586 -1 50
GlifName: _.mim.medi
Width: 669
VWidth: 1304
GlyphClass: 1
UnlinkRmOvrlpSave: 1
Flags: HMW
LayerCount: 2
Fore
SplineSet
-50 50 m 0
 -50 75 -26 100 -1 100 c 0
 112 100 139 112 181 207 c 2
 234 329 l 2
 262 393 303 412 341 412 c 0
 348 412 355 411 362 410 c 0
 458 394 523 290 535 188 c 1
 551 123 571 102 669 100 c 1
 669 -0 l 1
 604 0 550 8 511 44 c 1
 491 12 463 0 417 -0 c 0
 373 1 276 30 238 60 c 1
 228 102 l 1
 176 15 120 0 -1 -0 c 0
 -26 1 -50 24 -50 50 c 0
258 162 m 1
 312 128 388 101 440 100 c 1
 443 108 445 119 445 132 c 0
 445 195 409 299 343 311 c 0
 342 311 341 311 340 311 c 0
 327 311 316 293 306 272 c 1
 258 162 l 1
EndSplineSet
Colour: ffda6b
EndChar

StartChar: _.mim.init
Encoding: 65587 -1 51
GlifName: _.mim.init
Width: 637
VWidth: 1304
GlyphClass: 1
UnlinkRmOvrlpSave: 1
Flags: HMW
LayerCount: 2
Fore
SplineSet
-50 50 m 0
 -50 75 -26 100 -1 100 c 0
 112 100 139 112 181 207 c 2
 234 329 l 2
 262 393 303 412 341 412 c 0
 348 412 355 411 362 410 c 0
 469 392 537 265 537 153 c 0
 537 134 535 117 531 100 c 0
 515 26 483 0 417 -0 c 0
 373 1 276 30 238 60 c 1
 228 102 l 1
 176 15 120 0 -1 -0 c 0
 -26 1 -50 24 -50 50 c 0
258 162 m 1
 312 128 388 101 440 100 c 1
 443 108 445 119 445 132 c 0
 445 195 409 299 343 311 c 0
 342 311 341 311 340 311 c 0
 327 311 316 293 306 272 c 1
 258 162 l 1
EndSplineSet
Colour: ffda6b
EndChar

StartChar: _.nun.isol
Encoding: 65588 -1 52
GlifName: _.nun.isol
Width: 840
VWidth: 1305
GlyphClass: 1
UnlinkRmOvrlpSave: 1
Flags: HMW
LayerCount: 2
Fore
SplineSet
357 -299 m 0
 216 -299 100 -225 100 -58 c 0
 100 2 115 74 149 159 c 1
 200 143 l 1
 178 81 167 28 167 -16 c 0
 167 -145 253 -201 365 -201 c 0
 458 -201 568 -163 656 -100 c 1
 655 -67 647 67 587 248 c 1
 680 292 l 1
 715 187 740 52 740 -38 c 0
 740 -53 739 -66 738 -78 c 0
 722 -203 527 -299 357 -299 c 0
EndSplineSet
Colour: ffda6b
EndChar

StartChar: _.nun.fina
Encoding: 65589 -1 53
GlifName: _.nun.fina
Width: 842
VWidth: 1413
GlyphClass: 1
UnlinkRmOvrlpSave: 1
Flags: HMW
LayerCount: 2
Fore
SplineSet
357 -299 m 0
 216 -299 100 -225 100 -58 c 0
 100 2 115 74 149 159 c 1
 200 143 l 1
 178 81 167 28 167 -16 c 0
 167 -145 253 -201 365 -201 c 0
 458 -201 568 -163 656 -100 c 1
 655 -67 647 67 587 248 c 1
 680 292 l 1
 692 254 704 210 713 168 c 1
 729 118 755 102 842 100 c 1
 842 -0 l 1
 803 0 768 3 738 13 c 1
 739 -4 740 -21 740 -36 c 0
 740 -51 739 -66 738 -78 c 0
 722 -203 527 -299 357 -299 c 0
EndSplineSet
Colour: ffda6b
EndChar

StartChar: _.vav.isol
Encoding: 65590 -1 54
GlifName: _.vav.isol
Width: 564
VWidth: 1304
GlyphClass: 1
UnlinkRmOvrlpSave: 1
Flags: HMW
LayerCount: 2
Fore
SplineSet
100 -203 m 1
 232 -166 325 -91 384 -1 c 1
 383 6 383 14 383 21 c 1
 346 8 303 -1 263 -1 c 0
 178 -1 102 36 102 143 c 0
 103 267 153 379 253 390 c 1
 417 385 464 189 464 46 c 0
 464 39 463 31 463 24 c 2
 463 21 l 1
 440 -141 281 -260 126 -301 c 1
 100 -203 l 1
178 152 m 0
 178 112 219 100 266 100 c 0
 305 100 347 109 372 117 c 1
 356 204 321 282 258 289 c 1
 215 283 178 204 178 152 c 0
EndSplineSet
Colour: ffda6b
EndChar

StartChar: _.vav.fina
Encoding: 65591 -1 55
GlifName: _.vav.fina
Width: 565
VWidth: 1304
GlyphClass: 1
UnlinkRmOvrlpSave: 1
Flags: HMW
LayerCount: 2
Fore
SplineSet
100 -203 m 1
 232 -166 325 -90 384 -0 c 1
 261 -0 l 2
 177 0 102 37 102 143 c 0
 103 267 153 379 253 390 c 1
 397 385 451 234 462 100 c 1
 565 100 l 1
 565 -0 l 1
 459 -0 l 1
 426 -151 274 -263 126 -301 c 1
 100 -203 l 1
178 151 m 0
 178 112 220 100 266 100 c 2
 376 100 l 1
 360 195 324 282 258 289 c 1
 215 283 178 203 178 151 c 0
EndSplineSet
Colour: ffda6b
EndChar

StartChar: _.dal.isol
Encoding: 65592 -1 56
GlifName: _.dal.isol
Width: 599
VWidth: 1304
GlyphClass: 1
UnlinkRmOvrlpSave: 1
Flags: HMW
LayerCount: 2
Fore
SplineSet
100 128 m 0
 100 148 103 170 109 196 c 1
 160 180 l 1
 158 171 157 163 157 156 c 0
 157 101 207 100 267 100 c 0
 316 100 366 107 416 127 c 1
 409 230 370 329 215 420 c 1
 241 517 l 1
 429 426 499 288 499 149 c 1
 492 33 383 0 275 -0 c 0
 209 0 100 7 100 128 c 0
EndSplineSet
Colour: ffda6b
EndChar

StartChar: _.dal.fina
Encoding: 65593 -1 57
GlifName: _.dal.fina
Width: 627
VWidth: 1304
GlyphClass: 1
UnlinkRmOvrlpSave: 1
Flags: HMW
LayerCount: 2
Fore
SplineSet
100 128 m 0
 100 148 103 170 109 196 c 1
 160 180 l 1
 158 171 157 163 157 156 c 0
 157 101 207 100 267 100 c 0
 316 100 366 107 416 127 c 1
 326 452 l 1
 413 492 l 1
 499 180 l 2
 517 111 548 100 627 100 c 1
 627 -0 l 1
 541 0 490 15 456 53 c 1
 413 14 344 0 275 -0 c 0
 209 0 100 7 100 128 c 0
EndSplineSet
Colour: ffda6b
EndChar

StartChar: _.ree.isol
Encoding: 65594 -1 58
GlifName: _.ree.isol
Width: 564
VWidth: 1304
GlyphClass: 1
UnlinkRmOvrlpSave: 1
Flags: HMW
LayerCount: 2
Fore
SplineSet
100 -203 m 1
 235 -165 331 -86 388 6 c 1
 378 58 354 157 328 235 c 1
 420 278 l 1
 447 185 464 102 464 46 c 0
 464 39 464 32 463 26 c 2
 463 23 l 1
 442 -141 282 -260 126 -301 c 1
 100 -203 l 1
EndSplineSet
Colour: ffda6b
EndChar

StartChar: _.ree.fina
Encoding: 65595 -1 59
GlifName: _.ree.fina
Width: 578
VWidth: 1304
GlyphClass: 1
UnlinkRmOvrlpSave: 1
Flags: HMW
LayerCount: 2
Fore
SplineSet
100 -203 m 1
 235 -165 331 -86 388 6 c 1
 378 58 354 157 328 235 c 1
 420 278 l 1
 431 240 440 204 447 172 c 0
 463 119 488 102 578 100 c 1
 578 -0 l 1
 534 0 495 3 462 17 c 1
 437 -143 280 -262 126 -301 c 1
 100 -203 l 1
EndSplineSet
Colour: ffda6b
EndChar

StartChar: _.he8.isol
Encoding: 65596 -1 60
GlifName: _.he8.isol
Width: 560
VWidth: 1304
GlyphClass: 1
UnlinkRmOvrlpSave: 1
Flags: HMW
LayerCount: 2
Fore
SplineSet
274 -1 m 0
 158 -1 100 47 100 128 c 0
 100 191 135 272 201 359 c 1
 192 364 184 369 175 374 c 1
 202 471 l 1
 352 396 460 297 460 149 c 1
 453 40 373 -1 274 -1 c 0
176 146 m 0
 176 117 200 100 266 100 c 0
 316 100 344 100 376 127 c 1
 367 207 331 262 271 311 c 1
 222 247 176 186 176 146 c 0
EndSplineSet
Colour: ffda6b
EndChar

StartChar: _.he8.fina
Encoding: 65597 -1 61
GlifName: _.he8.fina
Width: 625
VWidth: 1304
GlyphClass: 1
UnlinkRmOvrlpSave: 1
Flags: HMW
LayerCount: 2
Fore
SplineSet
100 176 m 0
 100 298 230 385 342 411 c 1
 328 476 l 1
 417 518 l 1
 487 180 l 2
 501 110 546 100 625 100 c 1
 625 -0 l 1
 506 0 439 27 407 112 c 1
 377 68 l 1
 355 58 315 54 275 54 c 0
 239 54 203 58 183 63 c 0
 126 77 100 121 100 176 c 0
173 175 m 1
 202 168 249 161 295 161 c 0
 327 161 360 164 385 172 c 1
 391 172 l 1
 361 316 l 1
 267 304 178 229 173 175 c 1
EndSplineSet
Colour: ffda6b
EndChar

StartChar: _.he8.medi
Encoding: 65598 -1 62
GlifName: _.he8.medi
Width: 600
VWidth: 1304
GlyphClass: 1
UnlinkRmOvrlpSave: 1
Flags: HMW
LayerCount: 2
Fore
SplineSet
458 292 m 0
 458 226 446 168 418 104 c 1
 442 100 472 99 510 99 c 0
 536 99 566 100 600 100 c 1
 600 -0 l 1
 556 0 517 2 484 6 c 1
 494 -23 499 -52 499 -78 c 0
 499 -160 453 -221 390 -221 c 0
 272 -221 132 -135 111 2 c 1
 89 1 65 0 40 -0 c 2
 -1 -0 l 2
 -25 0 -50 24 -50 49 c 0
 -50 76 -27 100 -1 100 c 2
 40 100 l 2
 66 100 91 101 116 102 c 1
 148 292 283 458 390 460 c 1
 431 449 458 378 458 292 c 0
195 11 m 1
 211 -59 335 -100 393 -100 c 1
 393 -95 394 -86 394 -73 c 0
 394 -47 384 14 340 52 c 1
 301 34 253 20 195 11 c 1
205 112 m 1
 260 122 305 136 332 156 c 1
 349 165 363 222 363 278 c 0
 363 301 361 324 355 343 c 1
 296 304 231 210 205 112 c 1
EndSplineSet
Colour: ffda6b
EndChar

StartChar: _.he8.init
Encoding: 65599 -1 63
GlifName: _.he8.init
Width: 784
VWidth: 1304
GlyphClass: 1
UnlinkRmOvrlpSave: 1
Flags: HMW
LayerCount: 2
Fore
SplineSet
-50 50 m 0
 -50 76 -26 100 0 100 c 0
 49 100 96 102 135 107 c 1
 105 139 87 176 83 215 c 1
 92 353 193 435 250 439 c 1
 216 455 l 1
 253 549 l 1
 468 448 684 358 684 149 c 1
 677 35 553 0 446 -0 c 0
 444 0 442 0 440 -0 c 0
 365 0 297 14 242 37 c 1
 178 14 96 0 0 -0 c 0
 -26 0 -50 24 -50 50 c 0
154 221 m 1
 174 189 208 157 257 135 c 1
 303 153 335 179 353 215 c 1
 338 290 273 340 253 340 c 0
 232 339 179 295 154 221 c 1
415 211 m 0
 415 165 401 137 365 106 c 1
 387 102 412 101 439 100 c 0
 486 101 552 109 600 127 c 1
 584 253 476 328 343 396 c 1
 382 357 415 296 415 211 c 0
EndSplineSet
Colour: ffda6b
EndChar

StartChar: _.yeh.fina
Encoding: 65600 -1 64
GlifName: _.yeh.fina
Width: 851
VWidth: 1304
GlyphClass: 1
UnlinkRmOvrlpSave: 1
Flags: HMW
LayerCount: 2
Fore
SplineSet
358 -299 m 0
 217 -299 100 -226 100 -58 c 0
 100 2 115 74 149 159 c 1
 200 143 l 1
 178 81 167 28 167 -16 c 0
 167 -145 253 -201 365 -201 c 0
 469 -201 570 -156 622 -109 c 0
 644 -89 656 -70 656 -55 c 0
 656 -30 624 -12 549 -0 c 1
 474 -0 l 1
 501 100 l 1
 851 100 l 1
 851 -0 l 1
 744 -0 l 1
 747 -9 749 -20 749 -30 c 0
 749 -68 728 -109 691 -153 c 0
 625 -232 504 -299 358 -299 c 0
EndSplineSet
Colour: ffda6b
EndChar

StartChar: _.yeh.isol
Encoding: 65601 -1 65
GlifName: _.yeh.isol
Width: 865
VWidth: 1304
GlyphClass: 1
UnlinkRmOvrlpSave: 1
Flags: HMW
LayerCount: 2
Fore
SplineSet
358 -299 m 0
 217 -299 100 -226 100 -58 c 0
 100 2 115 74 149 159 c 1
 200 143 l 1
 178 81 167 28 167 -16 c 0
 167 -147 255 -201 369 -201 c 0
 473 -201 573 -157 623 -109 c 1
 647 -90 657 -74 657 -62 c 0
 657 -50 647 -41 633 -37 c 2
 467 5 l 2
 436 14 415 39 415 81 c 0
 415 87 415 94 416 101 c 0
 435 247 531 342 666 342 c 0
 697 342 730 337 765 326 c 1
 740 230 l 1
 715 237 693 240 672 240 c 0
 568 240 506 167 490 100 c 1
 659 56 l 2
 722 39 748 5 748 -35 c 0
 748 -71 726 -112 693 -150 c 0
 627 -231 506 -299 358 -299 c 0
EndSplineSet
Colour: ffda6b
EndChar

StartChar: _.hamze.isol
Encoding: 65602 -1 66
GlifName: _.hamze.isol
Width: 541
VWidth: 1304
GlyphClass: 2
Flags: HMW
LayerCount: 2
Fore
SplineSet
109 273 m 0
 109 385 186 467 285 467 c 0
 322 467 362 454 400 427 c 1
 355 338 l 1
 332 347 310 352 290 352 c 0
 237 352 195 323 170 289 c 1
 188 249 243 205 320 205 c 0
 323 205 326 205 329 205 c 0
 370 219 408 230 441 240 c 1
 421 140 l 1
 341 114 160 45 142 -1 c 1
 100 58 l 1
 104 88 135 115 181 141 c 1
 138 171 109 220 109 273 c 0
EndSplineSet
Colour: ffda6b
EndChar

StartChar: _.keshide.medi
Encoding: 65603 -1 67
GlifName: _.keshide.medi
Width: 350
VWidth: 1304
GlyphClass: 2
Flags: HMW
LayerCount: 2
Fore
SplineSet
-50 -0 m 1
 -50 100 l 1
 350 100 l 1
 350 -0 l 1
 -50 -0 l 1
EndSplineSet
Colour: ffda6b
EndChar

StartChar: _.dot.1u
Encoding: 65604 -1 68
GlifName: _.dot.1u
Width: 0
VWidth: 1304
GlyphClass: 2
Flags: HMW
LayerCount: 2
Fore
SplineSet
0 -0 m 1
 0 109 l 1
 110 109 l 1
 110 -0 l 1
 0 -0 l 1
EndSplineSet
Colour: ffda6b
EndChar

StartChar: _.dot.2u
Encoding: 65605 -1 69
GlifName: _.dot.2u
Width: 0
VWidth: 1304
GlyphClass: 2
UnlinkRmOvrlpSave: 1
Flags: HMW
LayerCount: 2
Fore
SplineSet
0 -0 m 1
 0 102 l 1
 102 102 l 1
 102 -0 l 1
 0 -0 l 1
154 -0 m 1
 154 102 l 1
 256 102 l 1
 256 -0 l 1
 154 -0 l 1
EndSplineSet
Colour: ffda6b
EndChar

StartChar: _.dot.3u
Encoding: 65606 -1 70
GlifName: _.dot.3u
Width: 0
VWidth: 1304
GlyphClass: 2
UnlinkRmOvrlpSave: 1
Flags: HMW
LayerCount: 2
Fore
SplineSet
0 -0 m 1
 0 102 l 1
 102 102 l 1
 102 -0 l 1
 0 -0 l 1
79 150 m 1
 79 252 l 1
 181 252 l 1
 181 150 l 1
 79 150 l 1
154 -0 m 1
 154 102 l 1
 256 102 l 1
 256 -0 l 1
 154 -0 l 1
EndSplineSet
Colour: ffda6b
EndChar

StartChar: _.dot.1d
Encoding: 65607 -1 71
GlifName: _.dot.1d
Width: 0
VWidth: 1304
GlyphClass: 2
Flags: HMW
LayerCount: 2
Fore
SplineSet
0 -0 m 1
 110 -0 l 1
 110 -110 l 1
 0 -110 l 1
 0 -0 l 1
EndSplineSet
Colour: ffda6b
EndChar

StartChar: _.dot.2d
Encoding: 65608 -1 72
GlifName: _.dot.2d
Width: 0
VWidth: 1304
GlyphClass: 2
UnlinkRmOvrlpSave: 1
Flags: HMW
LayerCount: 2
Fore
SplineSet
0 2 m 1
 102 2 l 1
 102 -100 l 1
 0 -100 l 1
 0 2 l 1
154 2 m 1
 256 2 l 1
 256 -100 l 1
 154 -100 l 1
 154 2 l 1
EndSplineSet
Colour: ffda6b
EndChar

StartChar: _.dot.3d
Encoding: 65609 -1 73
GlifName: _.dot.3d
Width: 0
VWidth: 1304
GlyphClass: 2
UnlinkRmOvrlpSave: 1
Flags: HMW
LayerCount: 2
Fore
SplineSet
0 2 m 1
 102 2 l 1
 102 -100 l 1
 0 -100 l 1
 0 2 l 1
79 -138 m 1
 181 -138 l 1
 181 -240 l 1
 79 -240 l 1
 79 -138 l 1
154 2 m 1
 256 2 l 1
 256 -100 l 1
 154 -100 l 1
 154 2 l 1
EndSplineSet
Colour: ffda6b
EndChar

StartChar: _.num.0.fa
Encoding: 65611 -1 75
GlifName: _.num.0
Width: 419
VWidth: 1424
GlyphClass: 2
Flags: HMW
LayerCount: 2
Fore
SplineSet
70 280 m 0
 70 295 76 310 87 321 c 2
 169 404 l 2
 180 415 195 420 210 420 c 0
 225 420 239 415 250 404 c 2
 332 321 l 2
 344 310 349 295 349 280 c 0
 349 265 344 251 332 240 c 2
 250 157 l 2
 239 146 225 141 210 141 c 0
 195 141 180 146 169 157 c 2
 87 240 l 2
 76 251 70 265 70 280 c 0
159 264 m 2
 192 231 l 2
 202 221 217 221 226 231 c 2
 259 264 l 2
 268 273 268 287 259 296 c 2
 226 330 l 2
 217 340 202 340 192 330 c 2
 159 296 l 2
 150 287 150 273 159 264 c 2
EndSplineSet
Colour: ffda6b
EndChar

StartChar: _.num.1
Encoding: 65612 -1 76
GlifName: _.num.1
Width: 291
VWidth: 1331
GlyphClass: 2
Flags: HMW
LayerCount: 2
Fore
SplineSet
70 657 m 1
 161 700 l 1
 210 441 221 309 221 47 c 1
 130 6 l 1
 130 269 119 397 70 657 c 1
EndSplineSet
Colour: ffda6b
EndChar

StartChar: _.num.2
Encoding: 65613 -1 77
GlifName: _.num.2
Width: 572
VWidth: 1331
GlyphClass: 2
Flags: HMW
LayerCount: 2
Fore
SplineSet
70 657 m 1
 161 700 l 1
 176 625 187 560 196 500 c 1
 223 472 272 460 308 460 c 0
 309 460 310 460 311 460 c 0
 351 460 397 479 411 490 c 1
 411 625 l 1
 502 668 l 1
 502 501 l 2
 502 403 390 359 305 359 c 0
 273 359 239 365 209 377 c 1
 219 277 221 179 221 47 c 1
 130 6 l 1
 130 269 119 397 70 657 c 1
EndSplineSet
Colour: ffda6b
EndChar

StartChar: _.num.3
Encoding: 65614 -1 78
GlifName: _.num.3
Width: 742
VWidth: 1331
GlyphClass: 2
Flags: HMW
LayerCount: 2
Fore
SplineSet
70 657 m 1
 161 700 l 1
 178 610 190 536 199 466 c 1
 216 462 234 460 249 460 c 0
 250 460 251 460 252 460 c 0
 291 460 336 479 352 490 c 1
 352 625 l 1
 442 668 l 1
 442 501 l 2
 442 489 441 476 437 465 c 1
 452 461 465 460 477 460 c 0
 478 460 480 460 481 460 c 0
 521 460 567 479 581 490 c 1
 581 625 l 1
 672 668 l 1
 672 501 l 2
 672 403 560 359 475 359 c 0
 437 359 394 368 361 385 c 1
 326 368 285 360 245 360 c 0
 233 360 221 361 210 362 c 1
 219 267 221 171 221 47 c 1
 130 6 l 1
 130 269 119 397 70 657 c 1
EndSplineSet
Colour: ffda6b
EndChar

StartChar: _.num.4.fa
Encoding: 65615 -1 79
GlifName: _.num.4.fa
Width: 597
VWidth: 1331
GlyphClass: 2
Flags: HMW
LayerCount: 2
Fore
SplineSet
70 657 m 1
 161 700 l 1
 171 650 179 606 186 564 c 1
 208 633 268 677 349 677 c 2
 527 677 l 1
 486 586 l 1
 340 581 l 2
 292 579 263 539 263 512 c 0
 263 470 290 432 340 431 c 2
 486 426 l 1
 527 333 l 1
 349 333 l 2
 290 333 238 366 207 410 c 1
 218 299 221 193 221 47 c 1
 130 6 l 1
 130 269 119 397 70 657 c 1
EndSplineSet
Colour: ffda6b
EndChar

StartChar: _.num.4.ar
Encoding: 65616 -1 80
GlifName: _.num.4.ar
Width: 523
VWidth: 1331
GlyphClass: 2
Flags: HMW
LayerCount: 2
Fore
SplineSet
70 464 m 0
 72 560 172 640 373 700 c 0
 376 701 378 702 380 702 c 0
 384 702 385 699 385 694 c 0
 385 671 354 609 347 592 c 1
 268 570 197 526 160 480 c 1
 212 427 326 402 380 400 c 0
 384 401 388 401 390 402 c 0
 392 402 395 401 396 400 c 0
 410 398 415 390 415 379 c 0
 415 364 405 343 394 326 c 0
 389 312 382 301 373 300 c 0
 283 282 194 200 176 140 c 1
 207 114 260 105 311 105 c 0
 364 105 415 114 432 125 c 0
 437 128 441 130 444 130 c 0
 450 130 453 126 453 118 c 0
 453 85 399 0 281 -0 c 0
 165 0 116 67 116 173 c 0
 116 230 158 289 219 331 c 1
 140 357 71 399 70 464 c 0
EndSplineSet
Colour: ffda6b
EndChar

StartChar: _.num.5.fa
Encoding: 65617 -1 81
GlifName: _.num.5.fa
Width: 758
VWidth: 1331
GlyphClass: 2
Flags: HMW
LayerCount: 2
Fore
SplineSet
90 178 m 0
 90 182 90 187 90 191 c 0
 96 288 153 411 298 571 c 1
 284 581 272 591 258 601 c 0
 251 606 248 612 248 620 c 0
 248 651 288 699 316 699 c 0
 320 699 324 698 328 695 c 0
 582 507 668 333 668 205 c 0
 668 77 582 -3 495 -3 c 0
 454 -3 413 15 380 54 c 1
 339 17 292 0 248 -0 c 0
 164 0 90 64 90 178 c 0
194 186 m 0
 194 127 225 99 258 99 c 0
 296 99 338 138 339 212 c 1
 430 212 l 1
 430 134 464 101 498 101 c 0
 534 101 570 137 570 198 c 0
 570 203 569 208 569 213 c 0
 563 284 515 386 381 505 c 1
 232 354 200 272 195 199 c 0
 195 195 194 190 194 186 c 0
EndSplineSet
Colour: ffda6b
EndChar

StartChar: _.num.5.ar
Encoding: 65618 -1 82
GlifName: _.num.5.ar
Width: 729
VWidth: 1331
GlyphClass: 2
Flags: HMW
LayerCount: 2
Fore
SplineSet
90 269 m 0
 90 430 176 586 351 693 c 1
 356 693 l 1
 544 598 639 429 639 244 c 0
 639 59 545 -4 358 -4 c 0
 178 -4 90 73 90 269 c 0
193 269 m 0
 193 148 248 109 356 109 c 0
 477 109 537 139 537 258 c 0
 537 360 477 481 356 560 c 1
 248 468 193 358 193 269 c 0
EndSplineSet
Colour: ffda6b
EndChar

StartChar: _.num.6.fa
Encoding: 65619 -1 83
GlifName: _.num.6.fa
Width: 599
VWidth: 1331
GlyphClass: 2
Flags: HMW
LayerCount: 2
Fore
SplineSet
234 274 m 1
 167 300 120 354 120 438 c 0
 120 495 145 554 199 591 c 1
 346 689 l 1
 364 591 l 1
 246 505 l 2
 221 487 212 461 212 439 c 0
 212 425 215 413 221 404 c 0
 237 381 270 354 305 354 c 0
 320 354 336 359 351 370 c 0
 393 398 432 419 466 439 c 1
 529 361 l 1
 379 281 279 220 133 -15 c 1
 70 63 l 1
 125 154 181 222 234 274 c 1
EndSplineSet
Colour: ffda6b
EndChar

StartChar: _.num.6.ar
Encoding: 65620 -1 84
GlifName: _.num.6.ar
Width: 727
VWidth: 1331
GlyphClass: 2
Flags: HMW
LayerCount: 2
Fore
SplineSet
317 637 m 0
 394 637 452 661 489 673 c 1
 499 673 l 2
 500 673 503 673 504 673 c 0
 526 673 547 664 547 642 c 0
 547 640 547 638 547 636 c 0
 547 565 540 496 540 422 c 0
 540 317 555 203 630 58 c 0
 635 48 637 39 637 30 c 0
 637 -4 605 -32 575 -32 c 0
 559 -32 543 -24 534 -5 c 0
 464 139 449 265 449 386 c 0
 449 439 452 491 454 543 c 1
 419 534 374 527 327 527 c 0
 242 527 149 547 94 610 c 0
 91 613 90 619 90 624 c 0
 90 650 121 696 145 696 c 0
 149 696 153 695 156 692 c 0
 206 651 263 637 317 637 c 0
EndSplineSet
Colour: ffda6b
EndChar

StartChar: _.num.7
Encoding: 65621 -1 85
GlifName: _.num.7
Width: 630
VWidth: 1331
GlyphClass: 2
Flags: HMW
LayerCount: 2
Fore
SplineSet
70 657 m 1
 161 699 l 1
 237 509 315 327 315 305 c 1
 315 327 391 509 469 699 c 1
 560 657 l 1
 390 288 362 120 362 61 c 2
 362 33 l 1
 315 15 l 1
 271 -0 l 1
 271 20 268 43 268 61 c 0
 268 120 239 288 70 657 c 1
EndSplineSet
Colour: ffda6b
EndChar

StartChar: _.num.8
Encoding: 65622 -1 86
GlifName: _.num.8
Width: 630
VWidth: 1331
GlyphClass: 2
Flags: HMW
LayerCount: 2
Fore
SplineSet
70 42 m 1
 239 411 268 579 268 638 c 0
 268 656 271 681 271 699 c 1
 315 684 l 1
 362 666 l 1
 362 638 l 2
 362 579 390 411 560 42 c 1
 469 -0 l 1
 391 190 315 372 315 395 c 1
 315 372 237 190 161 -0 c 1
 70 42 l 1
EndSplineSet
Colour: ffda6b
EndChar

StartChar: _.num.9
Encoding: 65623 -1 87
GlifName: _.num.9
Width: 545
VWidth: 1331
GlyphClass: 2
Flags: HMW
LayerCount: 2
Fore
SplineSet
70 503 m 0
 70 672 149 699 255 699 c 2
 368 699 l 2
 388 699 416 685 420 663 c 2
 432 599 l 1
 465 398 475 268 475 40 c 1
 384 -0 l 1
 384 133 381 232 372 329 c 1
 254 329 l 2
 162 329 70 347 70 503 c 0
177 505 m 0
 177 436 195 429 244 429 c 2
 361 429 l 1
 354 481 345 537 334 599 c 1
 254 599 l 2
 204 599 177 588 177 512 c 0
 177 509 177 507 177 505 c 0
EndSplineSet
Colour: ffda6b
EndChar

StartChar: _.sing.backslash
Encoding: 65624 -1 88
GlifName: _.sing.backslash
Width: 434
VWidth: 1197
GlyphClass: 2
Flags: HMW
LayerCount: 2
Fore
SplineSet
64 635 m 0
 64 664 91 683 118 683 c 0
 137 683 155 673 163 652 c 0
 239 441 289 307 365 96 c 0
 368 87 370 78 370 70 c 0
 370 39 347 20 322 20 c 0
 302 20 281 32 270 61 c 0
 192 272 143 407 67 618 c 0
 65 624 64 630 64 635 c 0
EndSplineSet
Colour: ffda6b
EndChar

StartChar: _.sing.slash
Encoding: 65625 -1 89
GlifName: _.sing.slash
Width: 434
VWidth: 1197
GlyphClass: 2
Flags: HMW
LayerCount: 2
Fore
SplineSet
64 70 m 0
 64 78 66 87 69 96 c 0
 145 307 195 441 271 652 c 0
 279 673 296 683 315 683 c 0
 342 683 370 664 370 635 c 0
 370 630 369 624 367 618 c 0
 291 407 242 272 164 61 c 0
 153 32 132 20 112 20 c 0
 87 20 64 39 64 70 c 0
EndSplineSet
Colour: ffda6b
EndChar

StartChar: _.sing.tajob
Encoding: 65626 -1 90
GlifName: _.sing.tajob
Width: 288
VWidth: 1197
GlyphClass: 2
Flags: HMW
LayerCount: 2
Fore
SplineSet
64 81 m 0
 64 124 100 161 144 161 c 0
 188 161 224 124 224 81 c 0
 224 37 188 1 144 1 c 0
 100 1 64 37 64 81 c 0
93 455 m 0
 93 460 94 465 94 470 c 2
 94 742 l 2
 94 772 118 786 143 786 c 0
 168 786 192 772 193 742 c 2
 193 469 l 1
 192 316 158 259 135 258 c 0
 110 258 93 310 93 455 c 0
EndSplineSet
Colour: ffda6b
EndChar

StartChar: _.sing.soal
Encoding: 65627 -1 91
GlifName: _.sing.soal
Width: 479
VWidth: 1304
GlyphClass: 2
Flags: HMW
LayerCount: 2
Fore
SplineSet
64 608 m 0
 64 689 136 761 243 761 c 0
 300 761 357 737 406 682 c 0
 412 675 415 669 415 663 c 0
 415 652 406 643 399 634 c 0
 390 619 372 596 356 596 c 0
 351 596 346 598 342 604 c 0
 326 626 283 658 247 658 c 0
 246 658 246 658 245 658 c 0
 194 658 166 637 166 608 c 0
 166 579 194 544 255 517 c 0
 309 493 338 447 338 394 c 0
 338 331 296 258 205 200 c 0
 201 198 198 197 194 197 c 0
 170 197 145 236 145 259 c 0
 145 267 148 274 155 276 c 0
 198 291 241 336 241 377 c 0
 241 398 230 418 202 432 c 0
 105 479 64 547 64 608 c 0
160 80 m 0
 160 124 196 160 240 160 c 0
 284 160 320 124 320 80 c 0
 320 36 284 0 240 -0 c 0
 196 0 160 36 160 80 c 0
EndSplineSet
Colour: ffda6b
EndChar

StartChar: _.sing.beezafeh
Encoding: 65628 -1 92
GlifName: _.sing.beezafeh
Width: 526
VWidth: 1352
GlyphClass: 2
Flags: HMW
LayerCount: 2
Fore
SplineSet
64 250 m 0
 64 275 84 300 123 300 c 2
 212 300 l 1
 212 401 l 1
 213 433 238 449 263 449 c 0
 289 449 314 432 314 401 c 2
 314 300 l 1
 415 300 l 2
 446 300 462 275 462 249 c 0
 462 224 447 199 415 198 c 1
 314 198 l 1
 314 109 l 2
 314 70 289 50 264 50 c 0
 239 50 213 70 212 109 c 1
 212 198 l 1
 123 198 l 1
 84 199 64 225 64 250 c 0
EndSplineSet
Colour: ffda6b
EndChar

StartChar: _.sing.menha
Encoding: 65629 -1 93
GlifName: _.sing.menha
Width: 526
VWidth: 0
GlyphClass: 2
Flags: HMW
LayerCount: 2
Fore
SplineSet
64 250 m 0
 64 275 84 300 123 300 c 2
 415 300 l 2
 446 300 462 275 462 249 c 0
 462 224 447 199 415 198 c 1
 123 198 l 1
 84 199 64 225 64 250 c 0
EndSplineSet
Colour: ffda6b
EndChar

StartChar: _.sing.khateh_tire
Encoding: 65630 -1 94
GlifName: _.sing.khateh_tire
Width: 511
VWidth: 0
GlyphClass: 2
Flags: HMW
LayerCount: 2
Fore
SplineSet
64 241 m 0
 64 257 74 273 97 282 c 2
 210 322 l 1
 167 439 l 2
 165 443 165 448 165 452 c 0
 165 474 187 491 209 491 c 0
 223 491 237 483 244 466 c 2
 285 351 l 1
 395 390 l 2
 399 392 404 392 408 392 c 0
 431 392 447 370 447 349 c 0
 447 335 440 322 423 315 c 2
 312 274 l 1
 352 167 l 2
 354 160 355 154 355 148 c 0
 355 123 337 107 317 107 c 0
 301 107 285 117 277 140 c 2
 237 247 l 1
 124 205 l 2
 117 203 111 202 105 202 c 0
 80 202 64 221 64 241 c 0
EndSplineSet
Colour: ffda6b
EndChar

StartChar: _.sing.virgul
Encoding: 65631 -1 95
GlifName: _.sing.virgul
Width: 299
VWidth: 1197
GlyphClass: 2
Flags: HMW
LayerCount: 2
Fore
SplineSet
153 1 m 0
 96 1 64 56 64 113 c 0
 64 182 108 261 202 308 c 0
 205 309 208 310 211 310 c 0
 226 310 235 291 235 274 c 0
 235 263 231 251 221 246 c 0
 178 224 156 198 156 179 c 0
 156 169 162 160 175 157 c 0
 208 148 233 117 233 81 c 0
 233 37 197 1 153 1 c 0
EndSplineSet
Colour: ffda6b
EndChar

StartChar: _.sing.dot_virgul
Encoding: 65632 -1 96
GlifName: _.sing.dot_virgul
Width: 299
VWidth: 1304
GlyphClass: 2
Flags: HMW
LayerCount: 2
Fore
SplineSet
153 300 m 0
 96 300 64 357 64 413 c 0
 64 482 108 561 202 607 c 0
 205 609 208 609 211 609 c 0
 225 609 235 590 235 573 c 0
 235 561 231 550 221 545 c 0
 178 523 156 497 156 479 c 0
 156 469 162 461 175 458 c 0
 208 448 233 417 233 380 c 0
 233 336 197 300 153 300 c 0
73 81 m 0
 73 124 109 161 153 161 c 0
 197 161 233 124 233 81 c 0
 233 37 197 1 153 1 c 0
 109 1 73 37 73 81 c 0
EndSplineSet
Colour: ffda6b
EndChar

StartChar: _.sing.2noqte
Encoding: 65633 -1 97
GlifName: _.sing.2noqte
Width: 288
VWidth: 1352
GlyphClass: 2
Flags: HMW
LayerCount: 2
Fore
SplineSet
64 81 m 0
 64 124 100 161 144 161 c 0
 188 161 224 124 224 81 c 0
 224 37 188 1 144 1 c 0
 100 1 64 37 64 81 c 0
64 351 m 0
 64 395 100 431 144 431 c 0
 188 431 224 395 224 351 c 0
 224 307 188 271 144 271 c 0
 100 271 64 307 64 351 c 0
EndSplineSet
Colour: ffda6b
EndChar

StartChar: _.sing.noqte
Encoding: 65634 -1 98
GlifName: _.sing.noqte
Width: 288
VWidth: 1352
GlyphClass: 2
Flags: HMW
LayerCount: 2
Fore
SplineSet
64 80 m 0
 64 124 100 160 144 160 c 0
 188 160 224 124 224 80 c 0
 224 36 188 0 144 -0 c 0
 100 0 64 36 64 80 c 0
EndSplineSet
Colour: ffda6b
EndChar

StartChar: _.sing.gheiomeh.right
Encoding: 65635 -1 99
GlifName: _.sing.gheiomeh.right
Width: 456
VWidth: 1352
GlyphClass: 2
Flags: HMW
LayerCount: 2
Fore
SplineSet
64 236 m 0
 64 321 95 403 158 487 c 0
 165 497 182 505 195 505 c 0
 205 505 213 501 213 490 c 0
 213 484 210 475 203 463 c 0
 162 394 140 329 140 261 c 0
 140 194 162 124 207 42 c 0
 208 40 209 37 209 34 c 0
 209 16 178 -8 153 -8 c 0
 142 -8 133 -4 127 8 c 0
 86 90 64 165 64 236 c 0
244 238 m 0
 244 323 274 403 337 487 c 0
 344 497 361 505 374 505 c 0
 384 505 392 501 392 490 c 0
 392 484 390 475 383 463 c 0
 342 394 321 329 321 262 c 0
 321 195 342 124 388 42 c 0
 389 40 389 37 389 35 c 0
 389 17 358 -8 333 -8 c 0
 322 -8 313 -4 308 8 c 0
 266 90 244 166 244 238 c 0
EndSplineSet
Colour: ffda6b
EndChar

StartChar: _.sing.gheiomeh.left
Encoding: 65636 -1 100
GlifName: _.sing.gheiomeh.left
Width: 457
VWidth: 1352
GlyphClass: 2
Flags: HMW
LayerCount: 2
Fore
SplineSet
64 7 m 0
 64 13 67 22 74 34 c 0
 115 103 136 167 136 235 c 0
 136 302 115 373 70 455 c 0
 69 457 68 459 68 462 c 0
 68 480 99 505 124 505 c 0
 135 505 144 501 150 489 c 0
 191 407 213 332 213 261 c 0
 213 176 182 94 119 10 c 0
 112 0 95 -8 82 -8 c 0
 72 -8 64 -4 64 7 c 0
244 7 m 0
 244 13 246 22 253 34 c 0
 294 103 316 168 316 236 c 0
 316 303 295 373 250 455 c 0
 249 457 248 460 248 462 c 0
 248 480 278 505 303 505 c 0
 314 505 324 501 330 489 c 0
 372 407 393 332 393 260 c 0
 393 175 363 94 299 10 c 0
 292 0 275 -8 262 -8 c 0
 252 -8 244 -4 244 7 c 0
EndSplineSet
Colour: ffda6b
EndChar

StartChar: _.sing.parantez.right
Encoding: 65637 -1 101
GlifName: _.sing.parantez.right
Width: 352
VWidth: 1352
GlyphClass: 2
Flags: HMW
LayerCount: 2
Fore
SplineSet
64 349 m 0
 64 492 111 634 206 779 c 0
 214 792 231 799 247 799 c 0
 268 799 288 788 288 768 c 0
 288 761 286 754 281 745 c 0
 200 613 160 481 160 349 c 0
 160 216 200 85 281 -47 c 0
 286 -56 288 -63 288 -70 c 0
 288 -90 268 -101 247 -101 c 0
 231 -101 214 -94 206 -81 c 0
 111 64 64 206 64 349 c 0
EndSplineSet
Colour: ffda6b
EndChar

StartChar: _.sing.parantez.left
Encoding: 65638 -1 102
GlifName: _.sing.parantez.left
Width: 352
VWidth: 1352
GlyphClass: 2
Flags: HMW
LayerCount: 2
Fore
SplineSet
64 -70 m 0
 64 -63 67 -56 72 -47 c 0
 153 85 191 216 191 349 c 0
 191 481 153 613 72 745 c 0
 67 754 64 761 64 768 c 0
 64 788 84 799 105 799 c 0
 121 799 138 792 147 779 c 0
 241 634 287 492 288 349 c 0
 287 206 241 64 147 -81 c 0
 138 -94 121 -101 105 -101 c 0
 84 -101 64 -90 64 -70 c 0
EndSplineSet
Colour: ffda6b
EndChar

StartChar: _.sing.parantez_tazeeni.right
Encoding: 65639 -1 103
GlifName: _.sing.parantez_tazeeni.right
Width: 667
VWidth: 0
GlyphClass: 2
Flags: HMW
LayerCount: 2
Fore
SplineSet
64 -102 m 1
 150 -20 212 70 250 168 c 1
 164 168 l 1
 164 277 l 1
 89 352 l 1
 164 426 l 1
 164 534 l 1
 250 534 l 1
 209 637 141 730 64 805 c 1
 159 805 l 1
 314 752 421 662 480 534 c 1
 529 534 l 1
 529 426 l 1
 603 352 l 1
 529 277 l 1
 529 168 l 1
 480 168 l 1
 421 40 314 -49 159 -102 c 1
 64 -102 l 1
142 352 m 1
 201 292 l 1
 201 204 l 1
 287 204 l 1
 347 146 l 1
 406 204 l 1
 492 204 l 1
 492 292 l 1
 552 352 l 1
 492 411 l 1
 492 497 l 1
 406 497 l 1
 347 557 l 1
 287 497 l 1
 201 497 l 1
 201 411 l 1
 142 352 l 1
150 -67 m 1
 288 -19 387 58 442 168 c 1
 421 168 l 1
 347 95 l 1
 286 154 l 1
 255 72 210 -3 150 -67 c 1
153 769 m 1
 213 701 256 628 286 548 c 1
 347 608 l 1
 421 534 l 1
 442 534 l 1
 385 644 288 722 153 769 c 1
347 230 m 0
 278 230 225 284 225 352 c 0
 225 422 277 474 346 474 c 0
 414 474 468 419 468 351 c 0
 468 283 416 230 347 230 c 0
263 352 m 1
 347 268 l 1
 431 352 l 1
 347 437 l 1
 263 352 l 1
EndSplineSet
Colour: ffda6b
EndChar

StartChar: _.sing.parantez_tazeeni.left
Encoding: 65640 -1 104
GlifName: _.sing.parantez_tazeeni.left
Width: 667
VWidth: 0
GlyphClass: 2
Flags: HMW
LayerCount: 2
Fore
SplineSet
236 352 m 1
 320 268 l 1
 404 352 l 1
 320 437 l 1
 236 352 l 1
225 534 m 1
 245 534 l 1
 320 608 l 1
 382 548 l 1
 412 628 455 701 517 769 c 1
 380 722 282 644 225 534 c 1
225 168 m 1
 279 58 377 -19 515 -67 c 1
 455 -3 412 72 382 154 c 1
 320 95 l 1
 245 168 l 1
 225 168 l 1
319 230 m 0
 251 230 199 283 199 351 c 0
 199 419 253 474 321 474 c 0
 390 474 442 422 442 352 c 0
 442 283 389 230 319 230 c 0
114 352 m 1
 175 292 l 1
 175 204 l 1
 261 204 l 1
 320 146 l 1
 380 204 l 1
 467 204 l 1
 467 292 l 1
 526 352 l 1
 467 411 l 1
 467 497 l 1
 380 497 l 1
 320 557 l 1
 261 497 l 1
 175 497 l 1
 175 411 l 1
 114 352 l 1
64 352 m 1
 138 426 l 1
 138 534 l 1
 187 534 l 1
 246 662 353 752 508 805 c 1
 603 805 l 1
 526 730 458 637 417 534 c 1
 503 534 l 1
 503 426 l 1
 579 352 l 1
 503 277 l 1
 503 168 l 1
 417 168 l 1
 454 70 517 -20 603 -102 c 1
 508 -102 l 1
 353 -49 246 40 187 168 c 1
 138 168 l 1
 138 277 l 1
 64 352 l 1
EndSplineSet
Colour: ffda6b
EndChar

StartChar: _.sing.koroshe.right
Encoding: 65641 -1 105
GlifName: _.sing.koroshe.right
Width: 389
VWidth: 1197
GlyphClass: 2
Flags: HMW
LayerCount: 2
Fore
SplineSet
64 -22 m 2
 64 623 l 2
 64 708 75 800 207 800 c 2
 291 800 l 2
 317 800 325 791 325 770 c 2
 325 741 l 2
 325 720 319 709 293 709 c 2
 224 709 l 2
 167 709 155 688 155 620 c 2
 155 439 l 2
 155 187 154 413 154 161 c 2
 154 -21 l 2
 154 -89 167 -109 224 -109 c 2
 293 -109 l 2
 319 -109 325 -120 325 -142 c 2
 325 -170 l 2
 325 -192 317 -201 291 -201 c 2
 207 -201 l 2
 84 -201 64 -107 64 -22 c 2
EndSplineSet
Colour: ffda6b
EndChar

StartChar: _.sing.koroshe.left
Encoding: 65642 -1 106
GlifName: _.sing.koroshe.left
Width: 389
VWidth: 1197
GlyphClass: 2
Flags: HMW
LayerCount: 2
Fore
SplineSet
64 -142 m 2
 64 -120 71 -110 97 -110 c 2
 165 -110 l 2
 223 -110 234 -89 235 -21 c 1
 235 161 l 2
 236 287 236 294 236 300 c 0
 236 306 236 313 235 439 c 2
 235 620 l 1
 234 688 223 709 165 709 c 2
 97 709 l 2
 71 709 65 720 65 741 c 2
 65 770 l 2
 65 791 72 800 98 800 c 2
 182 800 l 2
 314 800 325 708 325 623 c 2
 325 -22 l 2
 325 -107 305 -201 182 -201 c 2
 98 -201 l 2
 72 -201 64 -192 64 -170 c 2
 64 -142 l 2
EndSplineSet
Colour: ffda6b
EndChar

StartChar: _.sing.akolad.right
Encoding: 65643 -1 107
GlifName: _.sing.akolad.right
Width: 548
VWidth: 1197
GlyphClass: 2
Flags: HMW
LayerCount: 2
Fore
SplineSet
64 283 m 2
 64 316 l 2
 64 339 71 348 96 348 c 0
 158 348 224 349 224 439 c 2
 224 623 l 2
 224 708 235 800 367 800 c 2
 451 800 l 2
 476 800 485 791 484 770 c 1
 484 741 l 2
 484 720 478 709 452 709 c 2
 384 709 l 2
 326 709 315 688 314 620 c 1
 314 439 l 2
 314 354 260 300 178 300 c 1
 178 299 l 2
 179 299 180 299 181 299 c 0
 262 299 314 244 314 161 c 2
 314 -21 l 1
 315 -89 326 -109 384 -109 c 2
 452 -109 l 2
 478 -109 484 -120 484 -142 c 2
 484 -170 l 1
 485 -192 476 -201 451 -201 c 2
 367 -201 l 2
 244 -201 224 -107 224 -22 c 2
 224 161 l 2
 224 251 158 251 96 251 c 0
 71 251 64 261 64 283 c 2
EndSplineSet
Colour: ffda6b
EndChar

StartChar: _.sing.akolad.left
Encoding: 65644 -1 108
GlifName: _.sing.akolad.left
Width: 548
VWidth: 1197
GlyphClass: 2
Flags: HMW
LayerCount: 2
Fore
SplineSet
64 -142 m 2
 64 -120 71 -110 97 -110 c 2
 165 -110 l 2
 223 -110 234 -89 235 -21 c 1
 235 161 l 2
 235 244 287 299 368 299 c 0
 369 299 370 299 371 299 c 2
 371 300 l 1
 289 300 235 354 235 439 c 2
 235 620 l 1
 234 688 223 709 165 709 c 2
 97 709 l 2
 71 709 65 720 65 741 c 2
 65 770 l 2
 65 791 72 800 98 800 c 2
 182 800 l 2
 314 800 325 708 325 623 c 2
 325 439 l 2
 325 349 391 348 453 348 c 0
 478 348 484 339 484 316 c 2
 484 283 l 2
 484 261 478 251 453 251 c 0
 391 251 325 251 325 161 c 2
 325 -22 l 2
 325 -107 305 -201 182 -201 c 2
 98 -201 l 2
 72 -201 64 -192 64 -170 c 2
 64 -142 l 2
EndSplineSet
Colour: ffda6b
EndChar

StartChar: _.mark.maad
Encoding: 65645 -1 109
GlifName: _.mark.maad
Width: 0
VWidth: 1352
GlyphClass: 2
Flags: HMW
LayerCount: 2
Fore
SplineSet
0 12 m 0
 0 56 5 91 15 116 c 0
 23 139 28 145 38 145 c 0
 44 145 51 142 63 140 c 0
 99 134 131 130 161 130 c 0
 198 130 239 139 283 159 c 0
 285 160 288 160 290 160 c 0
 304 160 318 142 318 124 c 0
 318 115 314 106 305 100 c 1
 258 77 210 65 158 65 c 0
 132 65 106 68 80 74 c 1
 65 65 59 44 59 12 c 0
 58 0 44 -5 30 -5 c 0
 15 -5 0 1 0 12 c 0
EndSplineSet
Colour: ffda6b
EndChar

StartChar: _.mark.fatheh
Encoding: 65646 -1 110
GlifName: _.mark.fatheh
Width: 0
VWidth: 2310
GlyphClass: 2
Flags: HMW
LayerCount: 2
Fore
SplineSet
0 25 m 0
 0 40 6 57 16 60 c 2
 242 130 l 2
 243 130 244 131 245 131 c 0
 253 131 257 118 257 105 c 0
 257 90 252 73 242 70 c 2
 17 -1 l 2
 16 -1 15 -2 14 -2 c 0
 5 -2 0 11 0 25 c 0
EndSplineSet
Colour: ffda6b
EndChar

StartChar: _.mark.kasreh
Encoding: 65647 -1 111
GlifName: _.mark.kasreh
Width: 0
VWidth: 2384
GlyphClass: 2
Flags: HMW
LayerCount: 2
Fore
SplineSet
0 -105 m 0
 0 -90 6 -73 16 -69 c 2
 242 -0 l 2
 243 0 244 0 245 0 c 0
 253 0 257 -12 257 -25 c 0
 257 -40 252 -58 242 -61 c 2
 17 -131 l 2
 16 -131 14 -131 13 -131 c 0
 4 -131 0 -119 0 -105 c 0
EndSplineSet
Colour: ffda6b
EndChar

StartChar: _.mark.zameh
Encoding: 65648 -1 112
GlifName: _.mark.zameh
Width: 0
VWidth: 2277
GlyphClass: 2
Flags: HMW
LayerCount: 2
Fore
SplineSet
216 139 m 1
 236 133 251 134 251 114 c 0
 251 98 241 77 230 77 c 0
 229 77 229 77 228 77 c 0
 213 82 197 87 186 91 c 1
 154 53 104 18 38 -0 c 0
 35 -1 33 -1 30 -1 c 0
 11 -1 0 17 0 31 c 0
 0 39 3 46 11 48 c 0
 60 58 102 82 132 112 c 1
 128 112 l 1
 82 128 63 163 63 198 c 0
 63 247 99 297 149 297 c 0
 203 297 232 251 232 206 c 0
 232 185 227 162 216 139 c 1
180 202 m 0
 180 219 171 242 148 242 c 0
 129 242 112 221 112 200 c 0
 112 171 133 167 166 156 c 1
 175 172 180 188 180 202 c 0
EndSplineSet
Colour: ffda6b
EndChar

StartChar: _.mark.tanvin_fatheh
Encoding: 65649 -1 113
GlifName: _.mark.tanvin_fatheh
Width: 0
VWidth: 2280
GlyphClass: 2
Flags: HMW
LayerCount: 2
Fore
SplineSet
0 154 m 0
 0 169 6 187 16 191 c 2
 242 260 l 2
 243 260 244 260 245 260 c 0
 253 260 257 248 257 234 c 0
 257 219 252 202 242 199 c 2
 16 129 l 2
 15 129 13 128 12 128 c 0
 4 128 0 140 0 154 c 0
10 25 m 0
 10 40 16 57 26 60 c 2
 252 130 l 2
 253 130 254 131 255 131 c 0
 263 131 267 119 267 105 c 0
 267 90 262 73 252 70 c 2
 27 -1 l 2
 26 -1 25 -2 24 -2 c 0
 15 -2 10 11 10 25 c 0
EndSplineSet
Colour: ffda6b
EndChar

StartChar: _.mark.tanvin_kasreh
Encoding: 65650 -1 114
GlifName: _.mark.tanvin_kasreh
Width: 0
VWidth: 2413
GlyphClass: 2
Flags: HMW
LayerCount: 2
Fore
SplineSet
0 -106 m 0
 0 -91 6 -75 16 -72 c 2
 242 -1 l 2
 243 -1 244 -1 245 -1 c 0
 253 -1 257 -13 257 -26 c 0
 257 -41 252 -59 242 -63 c 2
 17 -133 l 2
 16 -133 15 -134 14 -134 c 0
 5 -134 0 -120 0 -106 c 0
10 -237 m 0
 10 -222 15 -205 25 -202 c 2
 252 -132 l 2
 253 -132 254 -131 255 -131 c 0
 264 -131 268 -143 268 -157 c 0
 268 -172 262 -189 252 -192 c 2
 27 -262 l 2
 26 -262 24 -263 23 -263 c 0
 14 -263 10 -251 10 -237 c 0
EndSplineSet
Colour: ffda6b
EndChar

StartChar: _.mark.tanvin_zameh
Encoding: 65651 -1 115
GlifName: _.mark.tanvin_zameh
Width: 0
VWidth: 2273
GlyphClass: 2
Flags: HMW
LayerCount: 2
Fore
SplineSet
30 83 m 0
 26 83 22 82 18 82 c 0
 7 82 0 94 0 107 c 0
 0 125 10 133 30 133 c 0
 70 133 90 106 93 77 c 1
 110 87 126 99 140 111 c 1
 135 111 l 1
 89 127 71 162 71 197 c 0
 71 246 107 296 157 296 c 0
 211 296 238 252 238 207 c 0
 238 186 232 162 221 139 c 1
 242 133 258 134 258 114 c 0
 258 98 248 77 237 77 c 0
 236 77 236 77 235 77 c 0
 219 82 202 87 191 92 c 1
 159 55 110 21 45 -0 c 0
 42 -1 39 -2 36 -2 c 0
 18 -2 7 16 7 30 c 0
 7 51 36 53 52 58 c 1
 52 72 45 83 30 83 c 0
119 200 m 0
 119 169 142 168 177 155 c 1
 185 169 190 184 190 197 c 0
 190 215 181 231 161 241 c 0
 159 242 157 242 155 242 c 0
 136 242 119 221 119 200 c 0
EndSplineSet
Colour: ffda6b
EndChar

StartChar: _.mark.tashdid
Encoding: 65652 -1 116
GlifName: _.mark.tashdid
Width: 0
VWidth: 1833
GlyphClass: 2
Flags: HMW
LayerCount: 2
Fore
SplineSet
0 98 m 2
 0 129 l 2
 0 142 13 148 25 148 c 0
 37 148 48 143 48 133 c 2
 48 100 l 2
 48 74 63 59 80 59 c 0
 100 59 123 80 123 125 c 2
 123 157 l 2
 123 172 138 181 151 181 c 0
 161 181 170 176 170 165 c 2
 170 125 l 2
 170 96 188 83 206 83 c 0
 224 83 243 97 243 123 c 0
 243 125 238 149 238 193 c 0
 238 208 254 218 268 218 c 0
 278 218 287 212 288 200 c 2
 292 128 l 2
 292 126 292 123 292 121 c 0
 292 61 246 22 203 22 c 0
 184 22 164 30 151 48 c 1
 136 15 108 -1 80 -1 c 0
 40 -1 0 32 0 98 c 2
EndSplineSet
Colour: ffda6b
EndChar

StartChar: _.mark.hamze
Encoding: 65653 -1 117
GlifName: _.mark.hamze
Width: 0
VWidth: 1841
GlyphClass: 2
Flags: HMW
LayerCount: 2
Fore
SplineSet
82 153 m 0
 82 139 97 111 112 111 c 0
 117 111 127 113 139 117 c 0
 153 122 180 128 219 134 c 0
 220 134 221 134 222 134 c 0
 234 134 242 115 242 97 c 0
 242 84 238 72 229 69 c 0
 181 59 156 54 152 53 c 0
 118 42 78 23 35 -4 c 0
 32 -6 29 -7 26 -7 c 0
 11 -7 0 19 0 37 c 0
 0 44 2 51 6 54 c 0
 33 70 45 78 49 80 c 1
 29 103 21 127 21 151 c 0
 21 213 80 268 140 268 c 0
 142 268 l 0
 164 268 189 259 212 242 c 0
 214 241 214 239 214 236 c 0
 214 222 196 190 182 190 c 0
 180 190 178 191 177 192 c 0
 164 200 150 202 136 202 c 0
 113 202 82 181 82 153 c 0
EndSplineSet
Colour: ffda6b
EndChar

StartChar: _.mark.sakon
Encoding: 65654 -1 118
GlifName: _.mark.sakon
Width: 0
VWidth: 2099
GlyphClass: 2
Flags: HMW
LayerCount: 2
Fore
SplineSet
0 107 m 0
 0 225 80 273 118 273 c 0
 154 273 240 216 240 114 c 0
 240 38 181 1 120 1 c 0
 60 1 0 37 0 107 c 0
118 70 m 0
 152 70 180 83 180 116 c 0
 180 156 144 202 116 202 c 0
 87 202 56 153 56 114 c 0
 56 81 83 70 118 70 c 0
EndSplineSet
Colour: ffda6b
EndChar

StartChar: _.mark.alef
Encoding: 65655 -1 119
GlifName: _.mark.alef
Width: 0
VWidth: 2091
GlyphClass: 2
Flags: HMW
LayerCount: 2
Fore
SplineSet
0 198 m 0
 0 220 26 247 47 247 c 0
 54 247 60 243 64 237 c 0
 99 184 109 123 109 70 c 0
 109 51 108 34 106 18 c 0
 106 6 91 0 79 -0 c 0
 72 0 54 6 54 18 c 0
 54 20 54 21 54 23 c 0
 54 83 34 142 4 186 c 0
 2 190 0 194 0 198 c 0
EndSplineSet
Colour: ffda6b
EndChar

StartChar: _.sing.momaiez
Encoding: 65656 -1 120
GlifName: _.sing.momaiez
Width: 427
VWidth: 1352
GlyphClass: 2
Flags: HMW
LayerCount: 2
Fore
SplineSet
64 -128 m 0
 64 -119 67 -111 73 -104 c 1
 288 336 l 1
 292 349 303 354 314 354 c 0
 336 354 363 335 363 310 c 0
 363 305 362 300 360 295 c 2
 128 -171 l 1
 122 -178 116 -181 109 -181 c 0
 87 -181 64 -153 64 -128 c 0
EndSplineSet
Colour: ffda6b
EndChar

StartChar: _.sing.hezare
Encoding: 65657 -1 121
GlifName: _.sing.hezare
Width: 230
VWidth: 1197
GlyphClass: 2
Flags: HMW
LayerCount: 2
Fore
SplineSet
64 801 m 0
 64 832 90 849 116 849 c 0
 141 849 166 833 166 801 c 0
 166 757 144 714 144 670 c 0
 144 630 129 609 114 609 c 0
 99 609 84 630 84 670 c 0
 84 714 64 757 64 801 c 0
EndSplineSet
Colour: ffda6b
EndChar

StartChar: _.sing.darsad
Encoding: 65658 -1 122
GlifName: _.sing.darsad
Width: 698
VWidth: 1197
GlyphClass: 2
Flags: HMW
LayerCount: 2
Fore
SplineSet
64 550 m 0
 64 594 100 630 144 630 c 0
 188 630 224 594 224 550 c 0
 224 506 188 470 144 470 c 0
 100 470 64 506 64 550 c 0
162 91 m 0
 162 102 165 113 172 125 c 2
 468 638 l 2
 477 654 493 661 508 661 c 0
 535 661 563 639 563 611 c 0
 563 604 560 595 556 587 c 2
 260 74 l 2
 246 51 227 42 210 42 c 0
 185 42 162 62 162 91 c 0
474 191 m 0
 474 235 510 271 554 271 c 0
 598 271 634 235 634 191 c 0
 634 147 598 111 554 111 c 0
 510 111 474 147 474 191 c 0
EndSplineSet
Colour: ffda6b
EndChar

StartChar: _.sing.mosavi
Encoding: 65659 -1 123
GlifName: _.sing.mosavi
Width: 526
VWidth: 1197
GlyphClass: 2
Flags: HMW
LayerCount: 2
Fore
SplineSet
64 150 m 0
 64 175 84 200 123 200 c 2
 415 200 l 2
 446 200 462 175 462 149 c 0
 462 124 447 99 415 98 c 2
 123 98 l 2
 84 99 64 125 64 150 c 0
64 350 m 0
 64 375 84 400 123 400 c 2
 415 400 l 2
 446 400 462 374 462 349 c 0
 462 324 447 300 415 299 c 2
 123 299 l 2
 84 300 64 325 64 350 c 0
EndSplineSet
Colour: ffda6b
EndChar

StartChar: _.sing.star5par
Encoding: 65660 -1 124
GlifName: _.sing.5par
Width: 635
VWidth: 1197
GlyphClass: 2
Flags: HMW
LayerCount: 2
Fore
SplineSet
201 2 m 0
 165 2 137 26 137 61 c 0
 137 76 141 90 148 101 c 2
 215 194 l 1
 106 229 l 2
 78 238 64 257 64 289 c 0
 64 320 89 351 118 351 c 0
 132 351 140 349 146 348 c 2
 255 312 l 1
 255 428 l 2
 255 467 286 490 318 490 c 0
 352 490 380 462 380 428 c 2
 380 312 l 1
 489 348 l 2
 495 349 505 351 517 351 c 0
 546 351 571 320 571 289 c 0
 571 257 556 238 528 229 c 2
 417 194 l 1
 485 101 l 2
 494 89 498 75 498 63 c 0
 498 30 470 2 433 2 c 0
 413 2 399 11 385 28 c 2
 318 122 l 1
 249 28 l 2
 237 11 221 2 201 2 c 0
EndSplineSet
Colour: ffda6b
EndChar

StartChar: _.beh_k.init
Encoding: 65661 -1 125
GlifName: _.beh_k.init
Width: 421
VWidth: 1197
GlyphClass: 2
UnlinkRmOvrlpSave: 1
Flags: HMW
LayerCount: 2
Fore
SplineSet
321 176 m 0
 321 32 207 0 36 -0 c 2
 -1 -0 l 2
 -26 0 -50 24 -50 50 c 0
 -50 76 -26 100 -1 100 c 2
 36 100 l 2
 85 100 192 108 239 128 c 1
 240 156 214 284 186 365 c 1
 277 407 l 1
 304 318 321 233 321 176 c 0
EndSplineSet
Colour: ffda6b
EndChar

StartChar: _.beh_k.medi
Encoding: 65662 -1 126
GlifName: _.beh_k.medi
Width: 442
VWidth: 1304
GlyphClass: 2
UnlinkRmOvrlpSave: 1
Flags: HMW
LayerCount: 2
Fore
SplineSet
-50 50 m 0
 -50 76 -26 100 -1 100 c 2
 36 100 l 2
 82 100 177 107 227 123 c 1
 223 139 219 155 217 172 c 2
 199 312 l 1
 289 331 l 1
 308 188 l 2
 318 118 341 100 442 100 c 1
 442 -0 l 1
 414 -0 l 2
 340 0 293 16 265 48 c 1
 216 11 137 0 36 -0 c 2
 -1 -0 l 2
 -26 0 -50 24 -50 50 c 0
EndSplineSet
Colour: ffda6b
EndChar

StartChar: _.sing.3noqte
Encoding: 65663 -1 127
GlifName: _.sing.3noqte
Width: 747
VWidth: 1304
GlyphClass: 2
Flags: HMW
LayerCount: 2
Fore
SplineSet
64 70 m 0
 64 108 95 139 134 139 c 0
 172 139 204 108 204 70 c 0
 204 31 172 0 134 -0 c 0
 95 0 64 31 64 70 c 0
289 75 m 0
 289 116 322 150 363 150 c 0
 405 150 438 116 438 75 c 0
 438 33 405 0 363 -0 c 0
 322 0 289 33 289 75 c 0
523 81 m 0
 523 124 559 161 603 161 c 0
 647 161 683 124 683 81 c 0
 683 37 647 1 603 1 c 0
 559 1 523 37 523 81 c 0
EndSplineSet
Colour: ffda6b
EndChar

StartChar: s.hyphen
Encoding: 8208 8208 138
GlifName: s.khat_tire
Width: 464
VWidth: 0
GlyphClass: 2
Flags: HMW
LayerCount: 2
Fore
SplineSet
34 229 m 1
 34 307 l 1
 430 307 l 1
 430 229 l 1
 34 229 l 1
EndSplineSet
Colour: d7d7d7
EndChar

StartChar: s.zwj
Encoding: 8205 8205 174
GlifName: s.zwj
Width: 0
VWidth: 1331
GlyphClass: 2
Flags: HMW
LayerCount: 2
Fore
SplineSet
25 -327 m 1
 -25 -327 l 1
 -25 579 l 1
 -111 491 l 1
 -141 521 l 1
 -30 631 l 1
 -141 740 l 1
 -111 772 l 1
 0 660 l 1
 111 772 l 1
 141 740 l 1
 30 631 l 1
 141 521 l 1
 111 491 l 1
 25 579 l 1
 25 -327 l 1
EndSplineSet
Colour: d7d7d7
EndChar

StartChar: s.tagsim
Encoding: 247 247 182
GlifName: s.tagsim
Width: 564
VWidth: 1278
GlyphClass: 2
Flags: HMW
LayerCount: 2
Fore
SplineSet
59 352 m 1
 59 429 l 1
 506 429 l 1
 506 352 l 1
 59 352 l 1
234 204 m 1
 234 299 l 1
 330 299 l 1
 330 204 l 1
 234 204 l 1
234 482 m 1
 234 577 l 1
 330 577 l 1
 330 482 l 1
 234 482 l 1
EndSplineSet
Colour: d7d7d7
EndChar

StartChar: s.zwnj
Encoding: 8204 8204 215
GlifName: s.zwnj
Width: 0
VWidth: 1331
GlyphClass: 2
Flags: HMW
LayerCount: 2
Fore
SplineSet
-25 -308 m 1
 -25 710 l 1
 25 710 l 1
 25 -308 l 1
 -25 -308 l 1
EndSplineSet
Colour: d7d7d7
EndChar

StartChar: s.dotted_circle
Encoding: 9676 9676 220
GlifName: s.dotted_circle
Width: 576
VWidth: 1890
GlyphClass: 2
Flags: HMW
LayerCount: 2
Fore
SplineSet
60 181 m 0
 60 196 67 203 82 203 c 0
 97 203 104 196 104 182 c 2
 104 180 l 2
 104 166 97 159 82 159 c 0
 67 159 60 166 60 181 c 0
76 103 m 0
 76 118 83 126 98 126 c 0
 113 126 120 118 120 103 c 0
 120 88 113 80 98 80 c 0
 83 80 76 88 76 103 c 0
76 259 m 0
 76 274 83 282 98 282 c 0
 113 282 120 274 120 259 c 0
 120 244 113 236 99 236 c 0
 84 236 76 244 76 259 c 0
120 34 m 0
 120 49 127 56 142 57 c 0
 157 56 164 49 165 34 c 0
 164 19 157 12 142 12 c 0
 127 12 120 19 120 34 c 0
120 326 m 0
 120 341 127 348 142 349 c 0
 157 348 164 341 165 326 c 0
 164 311 157 304 142 304 c 0
 127 304 120 311 120 326 c 0
187 -8 m 0
 187 7 195 14 210 14 c 0
 225 14 233 7 233 -8 c 0
 233 -23 225 -30 210 -30 c 0
 195 -30 187 -23 187 -8 c 0
187 372 m 0
 187 387 195 394 210 394 c 0
 225 394 233 387 233 372 c 0
 233 357 225 350 210 350 c 0
 195 350 187 357 187 372 c 0
310 -26 m 0
 310 -41 303 -48 288 -48 c 0
 273 -48 266 -41 265 -26 c 0
 266 -11 273 -4 288 -3 c 0
 303 -4 310 -11 310 -26 c 0
288 410 m 0
 303 410 310 403 310 388 c 0
 310 373 303 366 288 365 c 0
 273 366 266 373 265 388 c 0
 266 403 273 410 288 410 c 0
344 -8 m 0
 344 7 352 14 367 14 c 0
 382 14 390 7 390 -8 c 0
 390 -22 382 -30 367 -31 c 0
 352 -30 344 -22 344 -8 c 0
344 372 m 0
 344 387 352 394 367 394 c 0
 382 394 390 387 390 372 c 0
 390 358 382 350 367 349 c 0
 352 350 344 358 344 372 c 0
412 34 m 0
 412 49 419 56 434 57 c 0
 449 56 456 49 456 34 c 0
 456 19 449 12 434 12 c 0
 419 12 412 19 412 34 c 0
412 326 m 0
 412 341 419 348 434 349 c 0
 449 348 456 341 456 326 c 0
 456 311 449 304 434 304 c 0
 419 304 412 311 412 326 c 0
456 103 m 0
 456 118 463 126 478 126 c 0
 492 126 500 118 501 103 c 0
 500 88 492 80 478 80 c 0
 463 80 456 88 456 103 c 0
456 259 m 0
 456 274 463 282 478 282 c 0
 492 282 500 274 501 259 c 0
 500 244 492 236 478 236 c 0
 463 236 456 244 456 259 c 0
472 181 m 0
 472 196 479 203 494 203 c 0
 509 203 516 196 517 182 c 2
 517 180 l 2
 516 166 509 159 494 159 c 0
 479 159 472 166 472 181 c 0
EndSplineSet
Colour: d7d7d7
EndChar

StartChar: s.figure_dash
Encoding: 8210 8210 224
GlifName: s.figure_dash
Width: 600
VWidth: 0
GlyphClass: 2
Flags: HMW
LayerCount: 2
Fore
SplineSet
55 229 m 1
 55 307 l 1
 547 307 l 1
 547 229 l 1
 55 229 l 1
EndSplineSet
Colour: d7d7d7
EndChar

StartChar: s.em_dash
Encoding: 8212 8212 263
GlifName: s.em_dash
Width: 1200
VWidth: 1175
GlyphClass: 2
Flags: HMW
LayerCount: 2
Fore
SplineSet
55 229 m 1
 55 307 l 1
 1147 307 l 1
 1147 229 l 1
 55 229 l 1
EndSplineSet
Colour: d7d7d7
EndChar

StartChar: s.bullet
Encoding: 8226 8226 278
GlifName: s.bullet
Width: 602
VWidth: 1331
GlyphClass: 2
Flags: HMW
LayerCount: 2
Fore
SplineSet
532 432 m 0
 532 369 509 315 464 270 c 0
 419 225 365 202 302 202 c 0
 245 202 194 223 147 266 c 0
 100 309 77 357 77 410 c 0
 77 483 99 542 142 585 c 0
 185 628 236 650 295 650 c 0
 368 650 426 630 468 591 c 0
 510 552 532 499 532 432 c 0
EndSplineSet
Colour: d7d7d7
EndChar

StartChar: s.en_dash
Encoding: 8211 8211 310
GlifName: s.en_dash
Width: 600
VWidth: 1175
GlyphClass: 2
Flags: HMW
LayerCount: 2
Fore
SplineSet
55 229 m 1
 55 307 l 1
 547 307 l 1
 547 229 l 1
 55 229 l 1
EndSplineSet
Colour: d7d7d7
EndChar

StartChar: s.horizontal_bar
Encoding: 8213 8213 316
GlifName: s.horizontal_bar
Width: 2400
VWidth: 1175
GlyphClass: 2
Flags: HMW
LayerCount: 2
Fore
SplineSet
55 229 m 1
 55 307 l 1
 2347 307 l 1
 2347 229 l 1
 55 229 l 1
EndSplineSet
Colour: d7d7d7
EndChar

StartChar: s.lrm
Encoding: 8206 8206 317
GlifName: s.lrm
Width: 0
VWidth: 1331
GlyphClass: 2
Flags: HMW
LayerCount: 2
Fore
SplineSet
-25 -308 m 1
 -25 676 l 1
 196 676 l 1
 106 759 l 1
 138 790 l 1
 280 651 l 1
 138 510 l 1
 106 544 l 1
 196 628 l 1
 22 628 l 1
 22 -308 l 1
 -25 -308 l 1
EndSplineSet
Colour: d7d7d7
EndChar

StartChar: s.rlm
Encoding: 8207 8207 346
GlifName: s.rlm
Width: 0
VWidth: 1331
GlyphClass: 2
Flags: HMW
LayerCount: 2
Fore
SplineSet
22 676 m 1
 22 -308 l 1
 -25 -308 l 1
 -25 628 l 1
 -196 628 l 1
 -108 544 l 1
 -138 510 l 1
 -280 651 l 1
 -138 790 l 1
 -108 759 l 1
 -196 676 l 1
 22 676 l 1
EndSplineSet
Colour: d7d7d7
EndChar

StartChar: _.sing.yeh_domBoride
Encoding: 65664 -1 400
GlifName: _.mark.he_yeh
Width: 364
VWidth: 1304
GlyphClass: 1
UnlinkRmOvrlpSave: 1
Flags: HMW
LayerCount: 2
Fore
SplineSet
130 216 m 0
 130 283 192 361 289 361 c 0
 293 361 296 361 300 361 c 1
 281 294 l 1
 225 291 170 251 170 234 c 0
 170 233 170 231 171 230 c 0
 182 218 208 205 235 199 c 0
 276 189 294 163 294 133 c 0
 294 75 228 3 138 3 c 0
 115 3 90 9 64 20 c 1
 82 71 l 1
 99 63 118 60 136 60 c 0
 190 60 242 91 242 120 c 0
 242 134 230 147 201 156 c 0
 148 174 130 183 130 216 c 0
EndSplineSet
EndChar

StartChar: uni0000
Encoding: 0 0 401
GlifName: uni0000
Width: 497
VWidth: 0
GlyphClass: 2
Flags: HMW
LayerCount: 2
Fore
SplineSet
59 -251 m 1
 59 709 l 1
 438 709 l 1
 438 -251 l 1
 59 -251 l 1
105 -181 m 1
 387 -181 l 1
 387 648 l 1
 105 648 l 1
 105 -181 l 1
EndSplineSet
EndChar

StartChar: _.ghaf.medi
Encoding: 65665 -1 402
GlifName: _.ghaf.medi
Width: 568
VWidth: 0
GlyphClass: 2
Flags: HMW
LayerCount: 2
Fore
SplineSet
-50 49 m 0
 -50 76 -27 100 -1 100 c 0
 131 100 211 110 275 148 c 1
 274 186 257 232 213 292 c 1
 202 305 l 1
 165 354 110 412 31 482 c 1
 9 501 l 1
 82 620 l 1
 493 746 l 1
 466 638 l 1
 124 533 l 1
 218 446 274 383 306 335 c 1
 434 166 l 2
 468 120 491 100 540 100 c 2
 568 100 l 1
 568 -0 l 1
 537 -0 l 2
 452 0 411 32 359 100 c 1
 342 123 l 1
 334 90 320 68 294 53 c 0
 213 7 155 0 -1 -0 c 0
 -25 0 -50 24 -50 49 c 0
93 734 m 1
 111 800 l 1
 407 897 l 1
 386 832 l 1
 93 734 l 1
EndSplineSet
Colour: ffda6b
EndChar

StartChar: _.ghaf.init
Encoding: 65666 -1 403
GlifName: _.ghaf.init
Width: 593
VWidth: 0
GlyphClass: 2
Flags: HMW
LayerCount: 2
Fore
SplineSet
-50 49 m 0
 -50 76 -27 100 -1 100 c 0
 131 100 211 110 275 148 c 1
 273 218 218 315 31 482 c 0
 25 488 16 495 9 501 c 1
 82 620 l 1
 493 746 l 1
 466 638 l 1
 124 533 l 1
 325 346 351 273 351 205 c 0
 351 138 337 78 294 53 c 0
 213 7 155 0 -1 -0 c 0
 -25 0 -50 24 -50 49 c 0
93 734 m 1
 111 800 l 1
 407 897 l 1
 386 832 l 1
 93 734 l 1
EndSplineSet
Colour: ffda6b
EndChar

StartChar: _.la.isol.fa
Encoding: 65667 -1 404
Width: 731
VWidth: 0
Flags: HMW
LayerCount: 2
Fore
SplineSet
100 548 m 1
 170 620 l 1
 351 409 362 357 430 86 c 1
 469 107 506 136 539 175 c 1
 539 757 l 1
 631 800 l 1
 631 146 l 1
 589 -7 363 -77 221 -78 c 1
 192 28 l 1
 249 34 301 40 349 54 c 1
 291 284 281 339 100 548 c 1
EndSplineSet
Colour: ffda6b
EndChar

StartChar: _.la.fina.fa
Encoding: 65668 -1 405
Width: 788
VWidth: 0
Flags: HMW
LayerCount: 2
Fore
SplineSet
100 548 m 1
 170 620 l 1
 351 409 362 357 430 86 c 1
 469 107 506 136 539 175 c 1
 539 757 l 1
 631 800 l 1
 631 218 l 1
 638 153 714 100 788 100 c 1
 788 -0 l 1
 709 0 638 26 592 72 c 1
 511 -29 338 -77 221 -78 c 1
 192 28 l 1
 249 34 301 40 349 54 c 1
 291 284 281 339 100 548 c 1
EndSplineSet
Colour: ffda6b
EndChar

StartChar: _.sing.alef_maad
Encoding: 65671 -1 408
Width: 480
VWidth: 1352
Flags: HMW
LayerCount: 2
Fore
SplineSet
64 -3 m 0
 64 90 117 101 173 101 c 0
 190 101 209 100 225 100 c 0
 299 100 373 111 384 150 c 1
 416 130 l 1
 416 4 300 0 225 -0 c 0
 203 0 180 3 160 3 c 0
 129 3 104 -5 92 -40 c 1
 65 -22 l 1
 65 -15 64 -9 64 -3 c 0
EndSplineSet
Colour: ffda6b
EndChar

StartChar: _.sing.star
Encoding: 65672 -1 409
Width: 572
VWidth: 1197
Flags: HMW
LayerCount: 2
Fore
SplineSet
64 157 m 0
 64 164 67 169 72 172 c 2
 197 245 l 1
 78 314 l 2
 69 319 65 328 65 338 c 0
 65 363 87 394 110 394 c 0
 114 394 118 393 122 391 c 2
 240 324 l 1
 240 459 l 2
 240 479 263 490 286 490 c 0
 308 490 330 480 330 460 c 2
 330 321 l 1
 451 391 l 2
 455 393 458 394 462 394 c 0
 485 394 508 363 508 338 c 0
 508 328 504 319 495 314 c 2
 376 245 l 1
 500 172 l 2
 505 169 508 163 508 156 c 0
 508 132 482 94 462 94 c 0
 459 94 456 95 454 96 c 2
 330 167 l 1
 330 22 l 2
 330 8 309 1 287 1 c 0
 264 1 240 8 240 24 c 2
 240 166 l 1
 118 96 l 2
 116 95 114 94 111 94 c 0
 91 94 64 133 64 157 c 0
EndSplineSet
Colour: ffda6b
EndChar

StartChar: _.sing.zarb
Encoding: 65673 -1 410
Width: 443
VWidth: 1279
Flags: HMW
LayerCount: 2
Fore
SplineSet
64 354 m 0
 64 382 90 406 118 406 c 0
 129 406 140 403 150 393 c 2
 222 321 l 1
 293 393 l 2
 303 403 314 406 325 406 c 0
 352 406 379 381 379 354 c 0
 379 343 375 331 365 321 c 2
 293 250 l 1
 356 187 l 2
 371 172 377 157 377 143 c 0
 377 116 355 94 328 94 c 0
 314 94 299 100 285 114 c 2
 222 177 l 1
 159 114 l 2
 144 100 129 94 115 94 c 0
 88 94 66 116 66 143 c 0
 66 157 72 172 86 187 c 2
 149 250 l 1
 78 321 l 2
 68 331 64 343 64 354 c 0
EndSplineSet
Colour: ffda6b
EndChar

StartChar: _.sing.khateh_amoodi
Encoding: 65674 -1 411
Width: 229
VWidth: 1331
Flags: HMW
LayerCount: 2
Fore
SplineSet
64 1 m 1
 64 753 l 2
 64 784 90 801 115 801 c 0
 140 801 164 785 165 753 c 2
 165 1 l 1
 64 1 l 1
EndSplineSet
Colour: ffda6b
EndChar

StartChar: _.num.0.ar
Encoding: 65675 -1 412
Width: 430
VWidth: 1424
Flags: HMW
LayerCount: 2
Fore
SplineSet
90 241 m 1
 198 377 l 1
 340 271 l 1
 228 130 l 1
 90 241 l 1
EndSplineSet
EndChar

